<svg id="accept" xmlns="http://www.w3.org/2000/svg" width="33.258" height="34.713" viewBox="0 0 33.258 34.713">
  <path id="Path_4788" data-name="Path 4788" d="M24.812,15.843l.173,0H25q.486.009.963.061V4.1a4.1,4.1,0,0,0-4.1-4.1H4.1A4.1,4.1,0,0,0,0,4.1V27.654a4.1,4.1,0,0,0,4.1,4.1H15.961a10.421,10.421,0,0,1,8.851-15.907ZM14.689,6.687h6.07a1.017,1.017,0,0,1,0,2.034h-6.07a1.017,1.017,0,0,1,0-2.034Zm0,4.068h6.07a1.017,1.017,0,0,1,0,2.034h-6.07a1.017,1.017,0,0,1,0-2.034ZM11.274,25.062H5.2a1.017,1.017,0,1,1,0-2.034h6.07a1.017,1.017,0,1,1,0,2.034Zm0-4.136H5.2a1.017,1.017,0,1,1,0-2.034h6.07a1.017,1.017,0,0,1,0,2.034Zm0-4.068H5.2a1.017,1.017,0,1,1,0-2.034h6.07a1.017,1.017,0,0,1,0,2.034Zm0-4.068H5.2a1.017,1.017,0,1,1,0-2.034h6.07a1.017,1.017,0,0,1,0,2.034Zm0-4.068H5.2a1.017,1.017,0,1,1,0-2.034h6.07a1.017,1.017,0,0,1,0,2.034Zm2.4,7.119a1.017,1.017,0,0,1,1.017-1.017h2.923a1.017,1.017,0,1,1,0,2.034H14.689A1.017,1.017,0,0,1,13.672,15.841Zm0,0" fill="#707070"/>
  <path id="Path_4789" data-name="Path 4789" d="M255.855,265.206a8.392,8.392,0,0,0-5.87-2.524h-.015l-.137,0a8.45,8.45,0,1,0,6.022,2.526Zm-2.413,4.552-3.225,4.021a1.017,1.017,0,0,1-1.39.187l-2.406-1.743a1.017,1.017,0,0,1,1.193-1.647l1.622,1.175,2.62-3.265a1.017,1.017,0,0,1,1.586,1.273Zm0,0" transform="translate(-225.021 -244.87)" fill="#707070"/>
</svg>
