<svg id="_074-audi" data-name="074-audi" xmlns="http://www.w3.org/2000/svg" width="61.584" height="21.651" viewBox="0 0 61.584 21.651">
  <path id="Path_4015" data-name="Path 4015" d="M342.826,166a10.825,10.825,0,1,0,10.825,10.825A10.826,10.826,0,0,0,342.826,166Zm0,18.615a7.789,7.789,0,1,1,7.788-7.79A7.8,7.8,0,0,1,342.826,184.615Z" transform="translate(-292.067 -166)" fill="#ccc"/>
  <path id="Path_4016" data-name="Path 4016" d="M410.89,166a10.9,10.9,0,0,0-1.518.107c5.259.738,10.259,5.256,10.259,10.719s-5,9.98-10.259,10.719A10.825,10.825,0,1,0,410.89,166Z" transform="translate(-360.133 -166)" fill="#a6a6a6"/>
  <path id="Path_4017" data-name="Path 4017" d="M232.827,166a10.825,10.825,0,1,0,10.826,10.825A10.825,10.825,0,0,0,232.827,166Zm0,18.615a7.789,7.789,0,1,1,7.789-7.79A7.8,7.8,0,0,1,232.827,184.615Z" transform="translate(-195.299 -166)" fill="#ccc"/>
  <path id="Path_4018" data-name="Path 4018" d="M300.891,166a10.9,10.9,0,0,0-1.518.107c5.259.738,10.259,5.256,10.259,10.719s-5,9.98-10.259,10.719A10.825,10.825,0,1,0,300.891,166Z" transform="translate(-263.364 -166)" fill="#a6a6a6"/>
  <path id="Path_4019" data-name="Path 4019" d="M120.826,166a10.825,10.825,0,1,0,10.825,10.825A10.826,10.826,0,0,0,120.826,166Zm0,18.615a7.789,7.789,0,1,1,7.788-7.79A7.8,7.8,0,0,1,120.826,184.615Z" transform="translate(-96.769 -166)" fill="#ccc"/>
  <path id="Path_4020" data-name="Path 4020" d="M188.89,166a10.9,10.9,0,0,0-1.518.107c5.26.738,10.259,5.256,10.259,10.719s-5,9.98-10.259,10.719A10.825,10.825,0,1,0,188.89,166Z" transform="translate(-164.835 -166)" fill="#a6a6a6"/>
  <path id="Path_4021" data-name="Path 4021" d="M10.825,166a10.825,10.825,0,1,0,10.826,10.825A10.825,10.825,0,0,0,10.825,166Zm0,18.615a7.789,7.789,0,1,1,7.789-7.79A7.8,7.8,0,0,1,10.825,184.615Z" transform="translate(0 -166)" fill="#ccc"/>
  <path id="Path_4022" data-name="Path 4022" d="M78.89,166a10.9,10.9,0,0,0-1.518.107c5.26.738,10.259,5.256,10.259,10.719s-5,9.98-10.259,10.719A10.825,10.825,0,1,0,78.89,166Z" transform="translate(-68.066 -166)" fill="#a6a6a6"/>
</svg>
