<svg xmlns="http://www.w3.org/2000/svg" width="63" height="61.363" viewBox="0 0 63 61.363">
  <g id="_063-bmw" data-name="063-bmw" transform="translate(0.441)">
    <ellipse id="Ellipse_81" data-name="Ellipse 81" cx="31.5" cy="30.5" rx="31.5" ry="30.5" transform="translate(-0.441 0.363)" fill="#202738"/>
    <ellipse id="Ellipse_82" data-name="Ellipse 82" cx="19.578" cy="19.578" rx="19.578" ry="19.578" transform="translate(11.563 11.214)" fill="#fff"/>
    <g id="Group_12925" data-name="Group 12925" transform="translate(11.563 11.214)">
      <path id="Path_3981" data-name="Path 3981" d="M112.809,93.231v19.578H93.231A19.583,19.583,0,0,1,112.809,93.231Z" transform="translate(-93.231 -93.231)" fill="#2c44bf"/>
      <path id="Path_3982" data-name="Path 3982" d="M256,275.578V256h19.578A19.583,19.583,0,0,1,256,275.578Z" transform="translate(-236.422 -236.422)" fill="#2c44bf"/>
    </g>
    <ellipse id="Ellipse_83" data-name="Ellipse 83" cx="30.792" cy="30.272" rx="30.792" ry="30.272" transform="translate(0.349 0)" fill="#202738"/>
    <ellipse id="Ellipse_84" data-name="Ellipse 84" cx="19.578" cy="19.247" rx="19.578" ry="19.247" transform="translate(11.563 11.025)" fill="#fff"/>
    <path id="Path_3983" data-name="Path 3983" d="M244.779,91.659q-.775,0-1.534.059a19.226,19.226,0,0,1,0,38.378q.759.058,1.534.059a19.251,19.251,0,1,0,0-38.5Z" transform="translate(-213.638 -80.634)" fill="#cfcfcf"/>
    <g id="Group_12926" data-name="Group 12926" transform="translate(11.563 11.025)">
      <path id="Path_3984" data-name="Path 3984" d="M112.809,91.659v19.248H93.231A19.42,19.42,0,0,1,112.809,91.659Z" transform="translate(-93.231 -91.659)" fill="#2c44bf"/>
      <path id="Path_3985" data-name="Path 3985" d="M256,270.931V251.683h19.578A19.42,19.42,0,0,1,256,270.931Z" transform="translate(-236.422 -232.435)" fill="#2c44bf"/>
    </g>
    <path id="Path_3986" data-name="Path 3986" d="M272.51,251.682A19.361,19.361,0,0,1,256,270.694v.236a19.42,19.42,0,0,0,19.578-19.248H272.51Z" transform="translate(-224.859 -221.41)" fill="#263aa3"/>
    <path id="Path_3987" data-name="Path 3987" d="M244.672,0q-.779,0-1.549.038a30.505,30.505,0,0,1,29.243,30.235,30.505,30.505,0,0,1-29.243,30.235q.77.038,1.549.038c17.006,0,30.792-13.553,30.792-30.273S261.678,0,244.672,0Z" transform="translate(-213.531)" fill="#191e2b"/>
    <g id="Group_12927" data-name="Group 12927" transform="translate(14.713 2.102)">
      <path id="Path_3988" data-name="Path 3988" d="M232.592,17.472a2.118,2.118,0,0,0-1.238.4,2.128,2.128,0,0,0-3.37,1.733v4.165a.9.9,0,0,0,1.8,0V19.6a.328.328,0,1,1,.656,0v4.165a.9.9,0,0,0,.9.9h.015a.9.9,0,0,0,.9-.9V19.6a.328.328,0,0,1,.656,0v4.165a.9.9,0,0,0,1.8,0V19.6A2.134,2.134,0,0,0,232.592,17.472Z" transform="translate(-214.926 -17.472)" fill="#ebebeb"/>
      <path id="Path_3989" data-name="Path 3989" d="M125.517,44.432a2.223,2.223,0,0,0-3.31-2.2l-2.337,1.334a.9.9,0,0,0-.336,1.231l1.312,2.3,1.312,2.3a.9.9,0,0,0,1.231.336l2.337-1.334h0a2.223,2.223,0,0,0-.209-3.968ZM123.1,43.8a.421.421,0,1,1,.418.732l-1.554.887-.418-.732Zm1.73,3.03-1.554.887-.418-.732,1.554-.887a.421.421,0,0,1,.418.732Z" transform="translate(-119.416 -38.999)" fill="#ebebeb"/>
      <path id="Path_3990" data-name="Path 3990" d="M331.689,37.641a.9.9,0,0,0-1.231.337L328.395,41.6a.328.328,0,1,1-.569-.325l2.064-3.618a.9.9,0,0,0-.337-1.231l-.007,0-.007,0a.9.9,0,0,0-1.231.337l-2.064,3.618a.328.328,0,1,1-.569-.325l2.064-3.618a.9.9,0,0,0-1.567-.894l-2.064,3.618a2.124,2.124,0,0,0,2.068,3.177,2.13,2.13,0,0,0,1.93,1.239,2.145,2.145,0,0,0,.566-.076,2.119,2.119,0,0,0,1.289-1l2.064-3.618A.9.9,0,0,0,331.689,37.641Z" transform="translate(-299.241 -32.96)" fill="#ebebeb"/>
    </g>
  </g>
</svg>
