<svg id="_2090795656032" xmlns="http://www.w3.org/2000/svg" width="410" height="116.466" viewBox="0 0 410 116.466">
  <path id="Path_2115" data-name="Path 2115" d="M2348.335,5606.345a10.86,10.86,0,0,1-3.259-3.257c-12.2-19.086,7.914-39.474,27.185-27.278a10.473,10.473,0,0,1,3.352,3.352C2387.808,5598.433,2367.419,5618.542,2348.335,5606.345ZM2394.511,5553H2381.2a1.89,1.89,0,0,0-1.862,1.957v3.258c-10.985-6.332-25.509-7.354-39.846.65a30.431,30.431,0,0,0-12.382,13.035c-14.337,28.766,6.145,57.069,33.236,57.069a38.54,38.54,0,0,0,18.991-5.028v3.259a1.889,1.889,0,0,0,1.862,1.955h13.313a3.816,3.816,0,0,0,3.724-3.817v-68.521A3.816,3.816,0,0,0,2394.511,5553Z" transform="translate(-2241.458 -5552.814)" fill="#003890"/>
  <path id="Path_2116" data-name="Path 2116" d="M4628.991,5554.957v70.381a3.833,3.833,0,0,1-3.817,3.817h-13.22A1.909,1.909,0,0,1,4610,5627.2v-70.383a3.9,3.9,0,0,1,3.815-3.817h13.313A1.891,1.891,0,0,1,4628.991,5554.957Z" transform="translate(-4316.094 -5552.814)" fill="#003890"/>
  <path id="Path_2117" data-name="Path 2117" d="M3267.339,5553.862v15.176a1.868,1.868,0,0,1-1.862,1.861h-5.493c-10.52,0-18.991,4.563-18.991,14.989v40.4a1.89,1.89,0,0,1-1.862,1.955h-13.312a3.9,3.9,0,0,1-3.816-3.815v-68.521a3.9,3.9,0,0,1,3.816-3.818h13.313a1.95,1.95,0,0,1,1.862,1.956v4.654c4.189-5.679,10.054-6.61,15.64-6.61l8.473-.093h.744A1.9,1.9,0,0,1,3267.339,5553.862Z" transform="translate(-3057.313 -5551.906)" fill="#003890"/>
  <path id="Path_2118" data-name="Path 2118" d="M1482.6,5583.84a9.614,9.614,0,1,0,0,12.661,26.777,26.777,0,0,1,5.213,6.424,25.535,25.535,0,0,1,3.352,12.754,25.606,25.606,0,0,1,3.444-12.754,23.361,23.361,0,0,1,2.7-3.817,7.59,7.59,0,0,1,5.679-2.606h23.647a1.95,1.95,0,0,1,1.862,1.956c0,.093,0,.093-.093.185a1.184,1.184,0,0,1-.093.56h0a24.637,24.637,0,0,1-1.117,3.724,39.213,39.213,0,0,1-7.541,12.754,38.381,38.381,0,0,1-56.975,0,40.932,40.932,0,0,1-7.541-12.754,46.319,46.319,0,0,1-1.583-6.424,36.152,36.152,0,0,1,0-12.661,37.134,37.134,0,0,1,9.216-19.085,38.2,38.2,0,0,1,65.541,16.386h0c.093.277.093.558.186.836h0a2.1,2.1,0,0,1-1.49,1.863h-24.019a7.166,7.166,0,0,1-5.586-2.515,25.493,25.493,0,0,1-6.237-16.57A25.193,25.193,0,0,1,1482.6,5583.84Z" transform="translate(-1453 -5551.906)" fill="#003890"/>
  <path id="Path_2119" data-name="Path 2119" d="M3766.485,5595.872a18.933,18.933,0,0,1-35.095,0,18.193,18.193,0,0,1-1.4-7.167,18.945,18.945,0,0,1,37.89,0A18.193,18.193,0,0,1,3766.485,5595.872Zm16.572-44.778h-13.22a1.888,1.888,0,0,0-1.955,1.86v2.98a39.281,39.281,0,0,0-34.725-1.677,37.26,37.26,0,0,0-11.544,8.2A38.507,38.507,0,0,0,3711,5588.705a37.922,37.922,0,0,0,5.96,20.388,7.862,7.862,0,0,1,.744,1.116c.279.373.465.652.744,1.024a36.228,36.228,0,0,0,12.942,11.079,37.284,37.284,0,0,0,17.593,4.376,39.282,39.282,0,0,0,5.772-.465,35.428,35.428,0,0,0,13.127-4.84v8.1a19.272,19.272,0,0,1-2.514,9.5,12.926,12.926,0,0,1-1.582,2.327,18.851,18.851,0,0,1-14.8,7.169,19.144,19.144,0,0,1-14.244-6.424,3.686,3.686,0,0,0-4.562-.839l-10.333,5.307a3.772,3.772,0,0,0-1.3,5.586,37.825,37.825,0,0,0,66.471-10.8,21.812,21.812,0,0,0,.652-2.327,35.425,35.425,0,0,0,1.21-9.5v-74.663A3.755,3.755,0,0,0,3783.058,5551.094Z" transform="translate(-3500.786 -5551)" fill="#003890"/>
  <path id="Path_2120" data-name="Path 2120" d="M3686,5552h0Z" transform="translate(-3478.115 -5551.906)" fill="#003890"/>
  <path id="Path_2121" data-name="Path 2121" d="M2262.186,5865.84a2.731,2.731,0,0,0-.185-.84Z" transform="translate(-2186.685 -5835.768)" fill="#003890"/>
  <path id="Path_2122" data-name="Path 2122" d="M2239,5894h0Z" transform="translate(-2165.826 -5862.068)" fill="#003890"/>
  <path id="Path_2123" data-name="Path 2123" d="M5660,5891a.792.792,0,0,0,.744,0Z" transform="translate(-5268.341 -5859.348)" fill="#003890"/>
  <path id="Path_2124" data-name="Path 2124" d="M5489,5891c.093.093.186.093.372.093a.563.563,0,0,0,.373-.093Z" transform="translate(-5113.261 -5859.348)" fill="#003890"/>
  <path id="Path_2125" data-name="Path 2125" d="M4964.944,5600.9v.093c-.093.187-.093.467-.186.651a37.866,37.866,0,0,1-74.2-2.514,34.661,34.661,0,0,1-.558-6.237,38.94,38.94,0,0,1,.558-6.611,37.918,37.918,0,0,1,74.105-2.605h0a5.4,5.4,0,0,1,.188.651v.093a1.892,1.892,0,0,1-1.584,1.861H4946.6a1.819,1.819,0,0,1-1.209-.744,1.224,1.224,0,0,1-.28-.745,19.008,19.008,0,0,0-35,1.489,19.323,19.323,0,0,0-1.116,6.611,18.923,18.923,0,0,0,36.308,7.541c.093-.187.093-.279.186-.372a1.854,1.854,0,0,1,1.676-1.024h15.92A1.931,1.931,0,0,1,4964.944,5600.9Z" transform="translate(-4570.026 -5554.629)" fill="#003890"/>
  <path id="Path_2126" data-name="Path 2126" d="M5763.932,6262.069h1.77a.727.727,0,0,0,.372-.09c.094,0,.185-.1.278-.187a.718.718,0,0,1,.187-.373v-.93c-.093-.094-.187-.186-.28-.279-.091-.187-.185-.187-.279-.279a.562.562,0,0,0-.372-.092h-1.675Zm-.932,2.98V6259h2.7a1.131,1.131,0,0,1,.744.184c.186.094.373.279.559.373a2.292,2.292,0,0,1,.372.652,2.173,2.173,0,0,1,.187.744,1.185,1.185,0,0,1-.093.559,3.116,3.116,0,0,1-.279.557,1.656,1.656,0,0,1-.372.469.719.719,0,0,1-.467.184l1.489,2.328h-1.115l-1.3-2.047h-1.49v2.047Z" transform="translate(-5361.753 -6193.089)" fill="#003890"/>
  <path id="Path_2127" data-name="Path 2127" d="M5721.612,6222.21a5.4,5.4,0,1,0,5.4,5.4A5.405,5.405,0,0,0,5721.612,6222.21Zm0,11.918a6.557,6.557,0,0,1-6.611-6.516,6.61,6.61,0,1,1,13.221,0A6.556,6.556,0,0,1,5721.612,6234.128Z" transform="translate(-5318.222 -6158.624)" fill="#003890"/>
</svg>
