<svg id="_004-ford" data-name="004-ford" xmlns="http://www.w3.org/2000/svg" width="61.584" height="29.709" viewBox="0 0 61.584 29.709">
  <g id="Group_12916" data-name="Group 12916">
    <path id="Path_3938" data-name="Path 3938" d="M30.781,162.209c17,0,30.8-6.653,30.8-14.87,0-8.186-13.8-14.839-30.8-14.839C13.759,132.5,0,139.153,0,147.339c0,8.217,13.759,14.87,30.781,14.87Z" transform="translate(0 -132.5)" fill="#00539e"/>
    <path id="Path_3939" data-name="Path 3939" d="M244.576,132.5q-.78,0-1.55.019c16.283.389,29.255,6.884,29.255,14.821,0,7.966-12.972,14.462-29.255,14.851q.77.018,1.55.019c17,0,30.8-6.653,30.8-14.87C275.378,139.153,261.577,132.5,244.576,132.5Z" transform="translate(-213.795 -132.5)" fill="#004380"/>
    <g id="Group_12915" data-name="Group 12915" transform="translate(11.355 5.272)">
      <path id="Path_3940" data-name="Path 3940" d="M178.354,230.92a2.827,2.827,0,0,1-2.618-1.518,7.775,7.775,0,0,1-.725.462l-.011.006-.05.026a1.085,1.085,0,0,1-.495.163.5.5,0,0,1-.277-.083l-.025-.017-.022-.02a1.4,1.4,0,0,1-.465-.813l-.1-.734.516.2c.063-.047.144-.111.229-.176l.134-.1a2.633,2.633,0,0,0,.848-.9l.008-.021.007-.012c.158-.324.4-.788.619-1.2l.179-.339a4.7,4.7,0,0,1,4.036-2.928h.015a.88.88,0,0,1,.792.391c.023.023.508-.321.824-.319a.751.751,0,0,1,.572.217,3.088,3.088,0,0,1,.754,1.664,6.714,6.714,0,0,1,2.383-2.032,1.506,1.506,0,0,1,.685-.119h.075a1.76,1.76,0,0,1,1.4.561,1.522,1.522,0,0,1,.242.39,2.692,2.692,0,0,1,1.875-.828q.078,0,.157.005a1.563,1.563,0,0,1,1.582,1.574v.017a1.691,1.691,0,0,1-1.585,1.658H189.9a1.574,1.574,0,0,1-1.354-.657,1.363,1.363,0,0,0-.118.414l0,.011c2.38,1.4,3.134-.581,3.4-.859,1.04-1.08,2.023-2.1,3.878-2.093h.051a2.123,2.123,0,0,1,1.853,1.03l2.5-4.188a.211.211,0,0,1,.182-.1l2.237.008a.211.211,0,0,1,.183.315c-.919,1.614-5.071,8.911-5.1,9,.434-.1,1.019-.778,2.366-2.182,0,0,.435-.543.965-.368.314.1.7.27.7.655,0,.319-1.554,3.848-4.749,3.847h-.011a1.484,1.484,0,0,1-1.459-.733,6.214,6.214,0,0,1-2.7.652,2.215,2.215,0,0,1-2.122-1.422,2.789,2.789,0,0,1-.241-1.16,4.488,4.488,0,0,1-1.1.108c-.1,0-.212,0-.325-.006a2.043,2.043,0,0,1-1.8-.954l-.132.239c-.484.876-1.431,2.624-1.678,3.08a.21.21,0,0,1-.186.11l-2.386-.009a.211.211,0,0,1-.182-.318l2.423-4.155c.226-.891-1.217.33-2.353,1.68C181.766,229.072,180.511,230.928,178.354,230.92Zm.181-2.731c1.652,0,2.256-2.13,1.984-2.359-.615-.518-2.106-.1-2.416,1.49A.676.676,0,0,0,178.535,228.189Zm15.091-1.839a1.783,1.783,0,0,0-.528,1.537c.059.158,1.111.643,2.067-.569a1.643,1.643,0,0,0,.4-1.342C195.5,225.787,194.763,225.285,193.626,226.35Z" transform="translate(-164.044 -214.433)" fill="#fff"/>
      <path id="Path_3941" data-name="Path 3941" d="M121.206,184.043a2.3,2.3,0,0,1-1.648-.7,2.762,2.762,0,0,1-.771-1.951,3.858,3.858,0,0,1,1.9-3.175c1.366-.9,3.876-2.437,9.356-1.676,1.716.238,5.621,1.739,11.58,1.183a3.7,3.7,0,0,1,.539-.061c.387,0,.849.133.849.765,0,1.114-2.809,2.355-4.713,2.355a20.265,20.265,0,0,1-6.229-1.324c-.634-.212-1.181-.394-1.575-.483a19.963,19.963,0,0,0-4.079-.671c-2.88,0-4.163.9-4.671,1.433a1.878,1.878,0,0,0-.578,1.392.533.533,0,0,0,.592.525,1.157,1.157,0,0,0,.215-.021,3.212,3.212,0,0,0,1.954-1.353.662.662,0,0,1,.615-.408.613.613,0,0,1,.586.781C124.986,181.611,123.6,184.043,121.206,184.043Z" transform="translate(-115.854 -176.334)" fill="#fff"/>
      <path id="Path_3942" data-name="Path 3942" d="M98.483,219.07a3.875,3.875,0,0,1-4.078-3.913,3.768,3.768,0,0,1,.882-2.37,4.711,4.711,0,0,1,2.563-1.591l.054-.013h.056a.7.7,0,0,1,.786.676.784.784,0,0,1-.556.7l-.013.006-.014.005a2.731,2.731,0,0,0-1.314,2.01,1.479,1.479,0,0,0,1,1.448l.018,0c2.714.565,4.141-1.592,6.625-4.918a2.991,2.991,0,0,0-1.275.434,1.684,1.684,0,0,1-.532.236.657.657,0,0,1-.631-.535l-.014-.055v-.057a1.129,1.129,0,0,1,.224-.559l.011-.015.012-.014c.658-.74,2.138-1,3.368-1.149,1.777-2.7,2.287-2.922,2.725-2.922a.862.862,0,0,1,.285.051l.047.016c.261.087,1.207.618-.077,2.321.233-.032.818-.072.957-.236.316-1.729,2.295-2.2,2.851-.39.231.752-.3,1.222-.758,1.548a10.923,10.923,0,0,1-3.852,1.215C103.606,217.815,101.411,219.07,98.483,219.07Z" transform="translate(-94.404 -202.855)" fill="#fff"/>
    </g>
  </g>
  <path id="Path_3943" data-name="Path 3943" d="M41.778,169.722c-7.715,0-14.977-1.378-20.448-3.88-5.694-2.6-8.831-6.153-8.831-9.995s3.136-7.371,8.831-9.971C26.8,143.377,34.067,142,41.778,142s14.968,1.376,20.45,3.876c5.706,2.6,8.849,6.143,8.849,9.971s-3.142,7.389-8.848,9.995C56.75,168.344,49.487,169.722,41.778,169.722Zm0-25.918c-7.459,0-14.454,1.319-19.7,3.713-4.942,2.257-7.776,5.293-7.776,8.33,0,3.094,2.762,6.061,7.777,8.354,5.241,2.4,12.236,3.716,19.7,3.716s14.452-1.32,19.7-3.716c4.953-2.262,7.793-5.306,7.793-8.354s-2.84-6.072-7.793-8.33C56.228,145.123,49.231,143.8,41.778,143.8Z" transform="translate(-10.996 -140.857)" fill="#fff"/>
</svg>
