<svg id="_069-honda" data-name="069-honda" xmlns="http://www.w3.org/2000/svg" width="56.786" height="50.132" viewBox="0 0 56.786 50.132">
  <path id="Path_3997" data-name="Path 3997" d="M130.352,66.973,126.958,108.9H120.8a16.2,16.2,0,0,0-1.962-7.133,3.31,3.31,0,0,0-1.19-1.2,13.343,13.343,0,0,0-10.4,0,3.311,3.311,0,0,0-1.19,1.2,16.2,16.2,0,0,0-1.962,7.133H97.93L94.536,66.973h4.5c1.984,11.506,3.515,17.59,6.182,22.587a3.814,3.814,0,0,0,2.623,2.024,25.894,25.894,0,0,0,4.606.3,25.9,25.9,0,0,0,4.606-.3,3.814,3.814,0,0,0,2.623-2.024c2.667-5,4.2-11.081,6.182-22.587Z" transform="translate(-84.051 -62.872)" fill="#ccc"/>
  <path id="Path_3998" data-name="Path 3998" d="M164.679,360.338a11.414,11.414,0,0,0-5.2,1.056,3.311,3.311,0,0,0-1.19,1.2,16.2,16.2,0,0,0-1.962,7.133h2.7a16.2,16.2,0,0,1,1.962-7.133,3.309,3.309,0,0,1,1.19-1.2,9.653,9.653,0,0,1,3.851-1C165.556,360.356,165.1,360.338,164.679,360.338Z" transform="translate(-138.987 -323.7)" fill="#8c8c8c"/>
  <path id="Path_3999" data-name="Path 3999" d="M119.525,91.584a25.893,25.893,0,0,0,4.606.3c.468,0,.915,0,1.351-.014a21.278,21.278,0,0,1-3.256-.289A3.814,3.814,0,0,1,119.6,89.56c-2.667-5-4.2-11.081-6.182-22.587h-2.7c1.984,11.506,3.515,17.59,6.182,22.587A3.814,3.814,0,0,0,119.525,91.584Z" transform="translate(-98.44 -62.872)" fill="#a6a6a6"/>
  <path id="Path_4000" data-name="Path 4000" d="M365.9,66.973,362.5,108.9h2.7L368.6,66.973Z" transform="translate(-322.298 -62.872)" fill="#8c8c8c"/>
  <path id="Path_4001" data-name="Path 4001" d="M42.052,30h-27.1C.029,30-.176,34.674.037,40.361l1.146,30.48c.194,5.162,4.1,9.291,8.728,9.291H46.875c4.627,0,8.534-4.129,8.728-9.291l1.146-30.48C56.962,34.674,56.757,30,42.052,30ZM52.344,40.162,51.2,70.643a4.641,4.641,0,0,1-4.324,4.665H9.912a4.641,4.641,0,0,1-4.324-4.665L4.442,40.162a5.667,5.667,0,0,1,1.306-3.983,3.77,3.77,0,0,1,2.867-1.354H48.171a3.77,3.77,0,0,1,2.867,1.354A5.666,5.666,0,0,1,52.344,40.162Z" transform="translate(0 -30)" fill="#ccc"/>
  <path id="Path_4002" data-name="Path 4002" d="M23.444,73.507H20.857a3.77,3.77,0,0,0-2.867,1.354,5.667,5.667,0,0,0-1.306,3.983l1.146,30.48a4.641,4.641,0,0,0,4.324,4.665h2.587a4.641,4.641,0,0,1-4.324-4.665l-1.146-30.48a5.667,5.667,0,0,1,1.306-3.983A3.77,3.77,0,0,1,23.444,73.507Z" transform="translate(-14.829 -68.682)" fill="#a6a6a6"/>
  <path id="Path_4003" data-name="Path 4003" d="M358.413,30h-2.587c14.7,0,14.91,4.674,14.7,10.361l-1.146,30.48c-.194,5.162-4.1,9.291-8.728,9.291h2.587c4.627,0,8.534-4.129,8.728-9.291l1.146-30.48C373.323,34.674,373.118,30,358.413,30Z" transform="translate(-316.361 -30)" fill="#8c8c8c"/>
</svg>
