<svg id="Group_12482" data-name="Group 12482" xmlns="http://www.w3.org/2000/svg" xmlns:xlink="http://www.w3.org/1999/xlink" width="155.091" height="78.954" viewBox="0 0 155.091 78.954">
  <defs>
    <clipPath id="clip-path">
      <rect id="Rectangle_1453" data-name="Rectangle 1453" width="155.09" height="78.954" fill="none"/>
    </clipPath>
    <clipPath id="clip-path-3">
      <rect id="Rectangle_1411" data-name="Rectangle 1411" width="39.574" height="17.676" fill="none"/>
    </clipPath>
    <clipPath id="clip-path-5">
      <rect id="Rectangle_1414" data-name="Rectangle 1414" width="2.358" height="27.375" fill="none"/>
    </clipPath>
    <clipPath id="clip-path-7">
      <rect id="Rectangle_1417" data-name="Rectangle 1417" width="5.16" height="4.861" fill="none"/>
    </clipPath>
    <clipPath id="clip-path-8">
      <rect id="Rectangle_1418" data-name="Rectangle 1418" width="15.218" height="14.38" fill="none"/>
    </clipPath>
    <clipPath id="clip-path-9">
      <rect id="Rectangle_1419" data-name="Rectangle 1419" width="33.378" height="28.3" fill="none"/>
    </clipPath>
    <clipPath id="clip-path-10">
      <rect id="Rectangle_1420" data-name="Rectangle 1420" width="3.602" height="2.42" fill="none"/>
    </clipPath>
    <clipPath id="clip-path-11">
      <rect id="Rectangle_1421" data-name="Rectangle 1421" width="7.297" height="4.903" fill="none"/>
    </clipPath>
    <clipPath id="clip-path-12">
      <rect id="Rectangle_1422" data-name="Rectangle 1422" width="12.97" height="7.606" fill="none"/>
    </clipPath>
    <clipPath id="clip-path-13">
      <rect id="Rectangle_1423" data-name="Rectangle 1423" width="8.504" height="4.987" fill="none"/>
    </clipPath>
    <clipPath id="clip-path-14">
      <rect id="Rectangle_1425" data-name="Rectangle 1425" width="53.46" height="21.657" fill="none"/>
    </clipPath>
    <clipPath id="clip-path-15">
      <rect id="Rectangle_1426" data-name="Rectangle 1426" width="26.178" height="0.849" fill="none"/>
    </clipPath>
    <clipPath id="clip-path-16">
      <rect id="Rectangle_1427" data-name="Rectangle 1427" width="57.569" height="1.799" fill="none"/>
    </clipPath>
    <clipPath id="clip-path-17">
      <rect id="Rectangle_1428" data-name="Rectangle 1428" width="41.132" height="24.44" fill="none"/>
    </clipPath>
    <clipPath id="clip-path-18">
      <rect id="Rectangle_1429" data-name="Rectangle 1429" width="35.933" height="22.492" fill="none"/>
    </clipPath>
    <clipPath id="clip-path-19">
      <rect id="Rectangle_1430" data-name="Rectangle 1430" width="17.698" height="13.672" fill="none"/>
    </clipPath>
    <clipPath id="clip-path-20">
      <rect id="Rectangle_1431" data-name="Rectangle 1431" width="30.513" height="22.253" fill="none"/>
    </clipPath>
    <clipPath id="clip-path-21">
      <rect id="Rectangle_1432" data-name="Rectangle 1432" width="18.13" height="0.764" fill="none"/>
    </clipPath>
    <clipPath id="clip-path-22">
      <rect id="Rectangle_1433" data-name="Rectangle 1433" width="6.417" height="16.974" fill="none"/>
    </clipPath>
    <clipPath id="clip-path-23">
      <rect id="Rectangle_1434" data-name="Rectangle 1434" width="155.09" height="18.468" fill="none"/>
    </clipPath>
    <clipPath id="clip-path-24">
      <rect id="Rectangle_1435" data-name="Rectangle 1435" width="26.179" height="1.981" fill="none"/>
    </clipPath>
    <clipPath id="clip-path-25">
      <rect id="Rectangle_1436" data-name="Rectangle 1436" width="26.179" height="1.585" fill="none"/>
    </clipPath>
    <clipPath id="clip-path-26">
      <rect id="Rectangle_1437" data-name="Rectangle 1437" width="26.178" height="2.05" fill="none"/>
    </clipPath>
    <clipPath id="clip-path-27">
      <rect id="Rectangle_1438" data-name="Rectangle 1438" width="5.159" height="4.861" fill="none"/>
    </clipPath>
    <clipPath id="clip-path-29">
      <rect id="Rectangle_1440" data-name="Rectangle 1440" width="33.379" height="28.3" fill="none"/>
    </clipPath>
    <clipPath id="clip-path-33">
      <rect id="Rectangle_1444" data-name="Rectangle 1444" width="8.505" height="4.987" fill="none"/>
    </clipPath>
    <clipPath id="clip-path-34">
      <rect id="Rectangle_1445" data-name="Rectangle 1445" width="9.366" height="5.501" fill="none"/>
    </clipPath>
    <clipPath id="clip-path-35">
      <rect id="Rectangle_1446" data-name="Rectangle 1446" width="6.161" height="2.31" fill="none"/>
    </clipPath>
    <clipPath id="clip-path-36">
      <rect id="Rectangle_1447" data-name="Rectangle 1447" width="43.402" height="26.232" fill="none"/>
    </clipPath>
    <clipPath id="clip-path-37">
      <rect id="Rectangle_1448" data-name="Rectangle 1448" width="2.523" height="1.893" fill="none"/>
    </clipPath>
    <clipPath id="clip-path-38">
      <rect id="Rectangle_1449" data-name="Rectangle 1449" width="5.909" height="2.616" fill="none"/>
    </clipPath>
    <clipPath id="clip-path-39">
      <rect id="Rectangle_1450" data-name="Rectangle 1450" width="2.932" height="15.703" fill="none"/>
    </clipPath>
    <clipPath id="clip-path-40">
      <rect id="Rectangle_1451" data-name="Rectangle 1451" width="1.95" height="12.8" fill="none"/>
    </clipPath>
  </defs>
  <g id="Group_12481" data-name="Group 12481" clip-path="url(#clip-path)">
    <rect id="Rectangle_1410" data-name="Rectangle 1410" width="39.52" height="17.386" transform="translate(148.186 55.879) rotate(-179.579)" fill="#b61100"/>
    <g id="Group_12371" data-name="Group 12371">
      <g id="Group_12370" data-name="Group 12370" clip-path="url(#clip-path)">
        <g id="Group_12369" data-name="Group 12369" transform="translate(108.74 38.203)" opacity="0.2" style="mix-blend-mode: overlay;isolation: isolate">
          <g id="Group_12368" data-name="Group 12368">
            <g id="Group_12367" data-name="Group 12367" clip-path="url(#clip-path-3)">
              <path id="Path_3463" data-name="Path 3463" d="M52.831,93.136l.128-17.386L13.44,75.46l-.055,7.529c12.069,1.1,24.168,4.106,34.574,10.112Z" transform="translate(-13.385 -75.46)"/>
            </g>
          </g>
        </g>
      </g>
    </g>
    <rect id="Rectangle_1413" data-name="Rectangle 1413" width="27.368" height="2.357" transform="translate(40.921 29.105) rotate(-90.208)" fill="#5a5555"/>
    <g id="Group_12376" data-name="Group 12376">
      <g id="Group_12375" data-name="Group 12375" clip-path="url(#clip-path)">
        <g id="Group_12374" data-name="Group 12374" transform="translate(40.92 1.726)" opacity="0.2" style="mix-blend-mode: overlay;isolation: isolate">
          <g id="Group_12373" data-name="Group 12373" transform="translate(0)">
            <g id="Group_12372" data-name="Group 12372" clip-path="url(#clip-path-5)">
              <path id="Path_3464" data-name="Path 3464" d="M223.216,30.779l-2.357.006v-.2l1.289-.006-.1-27.156,1.069-.008Z" transform="translate(-220.858 -3.41)"/>
            </g>
          </g>
        </g>
      </g>
    </g>
    <rect id="Rectangle_1416" data-name="Rectangle 1416" width="5.618" height="14.748" transform="translate(149.315 56.59) rotate(-179.577)" fill="#5a5555"/>
    <g id="Group_12480" data-name="Group 12480">
      <g id="Group_12479" data-name="Group 12479" clip-path="url(#clip-path)">
        <path id="Path_3465" data-name="Path 3465" d="M18.113,105.814A16.951,16.951,0,1,0,35.188,88.989a16.951,16.951,0,0,0-17.076,16.826" transform="translate(93.907 -43.937)" fill="#3d3939"/>
        <path id="Path_3466" data-name="Path 3466" d="M26.475,110.158a12.6,12.6,0,1,0,12.7-12.51,12.6,12.6,0,0,0-12.7,12.51" transform="translate(90.008 -48.212)" fill="#282626"/>
        <path id="Path_3467" data-name="Path 3467" d="M51.806,114.957a8.282,8.282,0,0,1-2.115,5.461c-.119.133-.246.265-.38.39a8.235,8.235,0,0,1-5.839,2.361,7.8,7.8,0,0,1-1.555-.161c-.181-.032-.353-.073-.525-.114v-.008a8.218,8.218,0,0,1-3.67-2.1,8.306,8.306,0,0,1-1.958-3.016c-.062-.174-.123-.347-.177-.52a8.406,8.406,0,0,1-.336-2.414,8.045,8.045,0,0,1,.226-1.861,8.2,8.2,0,0,1,1.611-3.272,4.4,4.4,0,0,1,.356-.406,8.2,8.2,0,0,1,3.75-2.345,8.3,8.3,0,0,1,2.4-.337,7.994,7.994,0,0,1,1.3.112c.18.033.361.065.534.106a8.313,8.313,0,0,1,5.924,5.371v.008a4.842,4.842,0,0,1,.161.512,8.317,8.317,0,0,1,.29,2.234" transform="translate(85.439 -52.639)" fill="#5a5555"/>
        <path id="Path_3468" data-name="Path 3468" d="M45.838,120.418a2.771,2.771,0,1,0,2.792-2.751,2.771,2.771,0,0,0-2.792,2.751" transform="translate(80.505 -58.097)" fill="#706b6b"/>
        <path id="Path_3469" data-name="Path 3469" d="M51.784,134.458a8.123,8.123,0,0,1-2.06.244,7.774,7.774,0,0,1-1.555-.16c-.18-.032-.353-.073-.526-.114v-.008c.219-1.923.708-4.308,1.848-4.441a.847.847,0,0,1,.674.249c.749.681,1.294,2.571,1.619,4.231" transform="translate(79.187 -64.172)" fill="#494646"/>
        <path id="Path_3470" data-name="Path 3470" d="M51.258,134.705a8.123,8.123,0,0,1-2.06.244,7.774,7.774,0,0,1-1.555-.16c.234-1.9.73-4.167,1.847-4.308a1.058,1.058,0,0,1,.149-.007c.749.681,1.294,2.571,1.619,4.231" transform="translate(79.712 -64.42)" fill="#3a3838"/>
        <path id="Path_3471" data-name="Path 3471" d="M41.207,126.684a8.172,8.172,0,0,1-1.784,3.209c-.119.133-.246.265-.38.39-1.594-1.151-3.538-2.839-3.067-3.928a.816.816,0,0,1,.553-.452c1.008-.323,3.04.2,4.677.781" transform="translate(95.707 -62.115)" fill="#494646"/>
        <path id="Path_3472" data-name="Path 3472" d="M40.721,126.684a8.172,8.172,0,0,1-1.784,3.209c-1.571-1.159-3.413-2.792-2.965-3.856.024-.047.048-.094.071-.133,1.008-.323,3.04.2,4.677.781" transform="translate(96.192 -62.115)" fill="#3a3838"/>
        <path id="Path_3473" data-name="Path 3473" d="M41.092,115.1c-1.813.827-4.389,1.759-5.121.779a.838.838,0,0,1-.12-.708c.228-1.059,1.779-2.6,3.116-3.741a8.254,8.254,0,0,1,1.965,3.15v.008a4.879,4.879,0,0,1,.161.512" transform="translate(95.863 -55.018)" fill="#494646"/>
        <path id="Path_3474" data-name="Path 3474" d="M41.222,114.582v.008c-1.805.8-4.279,1.665-5,.709-.024-.039-.055-.087-.078-.127.228-1.059,1.779-2.6,3.116-3.741a8.249,8.249,0,0,1,1.965,3.15" transform="translate(95.571 -55.018)" fill="#3a3838"/>
        <path id="Path_3475" data-name="Path 3475" d="M52.08,106.832c-.187,1.978-.663,4.7-1.89,4.85a.836.836,0,0,1-.674-.256c-.789-.713-1.347-2.768-1.672-4.475a8.322,8.322,0,0,1,2.4-.336,7.988,7.988,0,0,1,1.3.112c.181.032.361.065.534.106" transform="translate(78.789 -52.639)" fill="#494646"/>
        <path id="Path_3476" data-name="Path 3476" d="M52.6,106.726c-.2,1.971-.694,4.552-1.881,4.7a.973.973,0,0,1-.149,0c-.789-.713-1.347-2.768-1.672-4.475a8.319,8.319,0,0,1,2.4-.336,7.994,7.994,0,0,1,1.3.112" transform="translate(77.735 -52.639)" fill="#3a3838"/>
        <path id="Path_3477" data-name="Path 3477" d="M62.43,115.854a.826.826,0,0,1-.553.46c-.969.315-2.9-.171-4.5-.724a8.2,8.2,0,0,1,1.611-3.273,4.413,4.413,0,0,1,.357-.406c1.594,1.151,3.562,2.847,3.09,3.943" transform="translate(63.543 -55.254)" fill="#494646"/>
        <path id="Path_3478" data-name="Path 3478" d="M62.9,116.577c-.023.047-.047.094-.071.133-.968.315-2.9-.171-4.5-.725a8.211,8.211,0,0,1,1.611-3.272c1.571,1.159,3.421,2.8,2.965,3.864" transform="translate(62.59 -55.65)" fill="#3a3838"/>
        <path id="Path_3479" data-name="Path 3479" d="M62.433,126.685c-.212.973-1.534,2.354-2.783,3.452a8.3,8.3,0,0,1-1.958-3.016c-.062-.173-.123-.346-.177-.52,1.781-.772,4.1-1.549,4.8-.624a.812.812,0,0,1,.12.708" transform="translate(63.511 -61.992)" fill="#494646"/>
        <path id="Path_3480" data-name="Path 3480" d="M62.313,127.251c-.212.973-1.534,2.354-2.783,3.452a8.3,8.3,0,0,1-1.958-3.016c1.758-.757,3.979-1.464,4.664-.563.023.039.054.087.077.127" transform="translate(63.631 -62.557)" fill="#3a3838"/>
        <g id="Group_12379" data-name="Group 12379" transform="translate(126.346 60.248)" opacity="0.1" style="mix-blend-mode: overlay;isolation: isolate">
          <g id="Group_12378" data-name="Group 12378" transform="translate(0)">
            <g id="Group_12377" data-name="Group 12377" clip-path="url(#clip-path-7)">
              <path id="Path_3481" data-name="Path 3481" d="M51.745,122.5a2.771,2.771,0,1,1-4.209-3.5,2.769,2.769,0,0,0,4.209,3.5" transform="translate(-46.586 -119.006)"/>
            </g>
          </g>
        </g>
        <g id="Group_12382" data-name="Group 12382" transform="translate(120.689 56.15)" opacity="0.2" style="mix-blend-mode: overlay;isolation: isolate">
          <g id="Group_12381" data-name="Group 12381" transform="translate(0)">
            <g id="Group_12380" data-name="Group 12380" clip-path="url(#clip-path-8)">
              <path id="Path_3482" data-name="Path 3482" d="M53.11,121.531a8.243,8.243,0,0,1-.778,1.008c-.119.133-.246.265-.38.39a8.234,8.234,0,0,1-5.839,2.361,7.813,7.813,0,0,1-1.555-.161c-.181-.032-.353-.073-.525-.114v-.008a8.218,8.218,0,0,1-3.67-2.1,8.3,8.3,0,0,1-1.958-3.016c-.061-.174-.123-.347-.177-.52a8.406,8.406,0,0,1-.336-2.414,8.072,8.072,0,0,1,.226-1.861,8.2,8.2,0,0,1,1.611-3.273,4.544,4.544,0,0,1,.356-.406,6.305,6.305,0,0,1,.515-.507,8.222,8.222,0,0,0-1.345,4.453,8.414,8.414,0,0,0,.336,2.415c.054.173.115.346.177.519a8.319,8.319,0,0,0,5.628,5.118v.007c.173.041.345.081.526.114a7.8,7.8,0,0,0,1.555.16,8.123,8.123,0,0,0,2.06-.244,8.233,8.233,0,0,0,3.574-1.922" transform="translate(-37.892 -110.91)"/>
            </g>
          </g>
        </g>
        <g id="Group_12385" data-name="Group 12385" transform="translate(112.015 50.651)" opacity="0.2" style="mix-blend-mode: overlay;isolation: isolate">
          <g id="Group_12384" data-name="Group 12384">
            <g id="Group_12383" data-name="Group 12383" clip-path="url(#clip-path-9)">
              <path id="Path_3483" data-name="Path 3483" d="M52.531,115.577a16.95,16.95,0,1,1-29.013-15.528,16.472,16.472,0,1,0,29.013,15.528" transform="translate(-19.153 -100.049)"/>
            </g>
          </g>
        </g>
        <g id="Group_12388" data-name="Group 12388" transform="translate(127.865 60.009)" opacity="0.2" style="mix-blend-mode: overlay;isolation: isolate">
          <g id="Group_12387" data-name="Group 12387" transform="translate(0)">
            <g id="Group_12386" data-name="Group 12386" transform="translate(0)" clip-path="url(#clip-path-10)">
              <path id="Path_3484" data-name="Path 3484" d="M46.707,118.95c-.282.536.839.477,1.8.984s1.4,1.387,1.683.851-.268-1.381-1.23-1.888-1.971-.483-2.253.053" transform="translate(-46.663 -118.532)" fill="#fff"/>
            </g>
          </g>
        </g>
        <g id="Group_12391" data-name="Group 12391" transform="translate(127.913 54.713)" opacity="0.2" style="mix-blend-mode: overlay;isolation: isolate">
          <g id="Group_12390" data-name="Group 12390" transform="translate(0)">
            <g id="Group_12389" data-name="Group 12389" clip-path="url(#clip-path-11)">
              <path id="Path_3485" data-name="Path 3485" d="M39.359,108.918c-.572,1.086,1.7.966,3.648,1.993s2.838,2.81,3.409,1.724-.544-2.8-2.493-3.825-3.992-.978-4.564.108" transform="translate(-39.269 -108.071)" fill="#fff"/>
            </g>
          </g>
        </g>
        <g id="Group_12394" data-name="Group 12394" transform="translate(128.76 46.373)" opacity="0.2" style="mix-blend-mode: overlay;isolation: isolate">
          <g id="Group_12393" data-name="Group 12393" transform="translate(0)">
            <g id="Group_12392" data-name="Group 12392" transform="translate(0)" clip-path="url(#clip-path-12)">
              <path id="Path_3486" data-name="Path 3486" d="M26.446,92.214c-.572,1.086,3.2,1.214,6.739,3.079s5.51,4.759,6.082,3.673-1.591-3.775-5.132-5.639-7.117-2.2-7.689-1.113" transform="translate(-26.389 -91.598)" fill="#fff"/>
            </g>
          </g>
        </g>
        <g id="Group_12397" data-name="Group 12397" transform="translate(129.888 50.913)" opacity="0.2" style="mix-blend-mode: overlay;isolation: isolate">
          <g id="Group_12396" data-name="Group 12396" transform="translate(0)">
            <g id="Group_12395" data-name="Group 12395" transform="translate(0)" clip-path="url(#clip-path-13)">
              <path id="Path_3487" data-name="Path 3487" d="M33.022,100.971c-.375.712,2.1.8,4.419,2.018s3.613,3.121,3.988,2.409-1.043-2.476-3.365-3.7-4.667-1.441-5.042-.73" transform="translate(-32.984 -100.566)" fill="#fff"/>
            </g>
          </g>
        </g>
        <rect id="Rectangle_1424" data-name="Rectangle 1424" width="53.362" height="21.265" transform="matrix(-1, -0.007, 0.007, -1, 60.456, 55.233)" fill="#b61100"/>
        <g id="Group_12400" data-name="Group 12400" transform="translate(7.152 33.576)" opacity="0.2" style="mix-blend-mode: overlay;isolation: isolate">
          <g id="Group_12399" data-name="Group 12399" transform="translate(0)">
            <g id="Group_12398" data-name="Group 12398" clip-path="url(#clip-path-14)">
              <path id="Path_3488" data-name="Path 3488" d="M239.922,87.979l.156-21.264-53.361-.393-.1,13.5c13.239.59,26.782,2.506,38.729,8.047Z" transform="translate(-186.618 -66.322)"/>
            </g>
          </g>
        </g>
        <path id="Path_3489" data-name="Path 3489" d="M86.583,111.261l56.183.414a.7.7,0,0,0,.7-.69l.009-1.218a.7.7,0,0,0-.69-.7L86.6,108.653a.7.7,0,0,0-.7.69l-.009,1.219a.694.694,0,0,0,.69.7" transform="translate(-31.87 -53.646)" fill="#5a5555"/>
        <g id="Group_12403" data-name="Group 12403" transform="translate(66.218 55.66)" opacity="0.2" style="mix-blend-mode: overlay;isolation: isolate">
          <g id="Group_12402" data-name="Group 12402" transform="translate(0)">
            <g id="Group_12401" data-name="Group 12401" clip-path="url(#clip-path-15)">
              <path id="Path_3490" data-name="Path 3490" d="M123.836,110.235c0,.335,5.958.487,13.187.539s12.99-.011,12.992-.346-5.758-.4-12.986-.456-13.19-.072-13.193.263" transform="translate(-123.836 -109.942)" fill="#fff"/>
            </g>
          </g>
        </g>
        <g id="Group_12406" data-name="Group 12406" transform="translate(54.029 56.227)" opacity="0.2" style="mix-blend-mode: overlay;isolation: isolate">
          <g id="Group_12405" data-name="Group 12405" transform="translate(0)">
            <g id="Group_12404" data-name="Group 12404" clip-path="url(#clip-path-16)">
              <path id="Path_3491" data-name="Path 3491" d="M143.477,111.572l0,.22a1.073,1.073,0,0,1-1.084,1.068l-55.415-.409a1.072,1.072,0,0,1-1.068-1.084l0-.307a1.071,1.071,0,0,0,.775.336l56.114.413a1.016,1.016,0,0,0,.677-.238" transform="translate(-85.908 -111.061)"/>
            </g>
          </g>
        </g>
        <path id="Path_3492" data-name="Path 3492" d="M160.387,26.188S151.149.241,149.879.231,116.741-.329,116.7.306c-.152,2.474.548,25.516.548,25.516Z" transform="translate(-64.368 0)" fill="#e42000"/>
        <g id="Group_12409" data-name="Group 12409" transform="translate(53.597 1.02)" opacity="0.6" style="mix-blend-mode: overlay;isolation: isolate">
          <g id="Group_12408" data-name="Group 12408">
            <g id="Group_12407" data-name="Group 12407" clip-path="url(#clip-path-17)">
              <path id="Path_3493" data-name="Path 3493" d="M160.361,26.455s-8.7-24.215-9.89-24.223-31.185-.524-31.222.068c-.143,2.308.516,23.811.516,23.811Z" transform="translate(-119.229 -2.015)"/>
            </g>
          </g>
        </g>
        <path id="Path_3494" data-name="Path 3494" d="M205.324,28.68l-2.357-.035c0-.063.1-6.33.5-12.607.847-13.459,2.172-13.857,3.139-14.149,2.454-.738,33.555-.86,39.765-.876l.006,2.357c-13.77.037-36.042.27-38.9.737-1.122,1.866-1.983,14.04-2.145,24.573" transform="translate(-194.036 -0.5)" fill="#5a5555"/>
        <path id="Path_3495" data-name="Path 3495" d="M156.452,70.131l-30.407-.224L123.7,73.928l-3.828,6.564-4.36-.04-53.678-.49L53.03,67.35l-27.887.2L17.913,81.51l-.749,1.44a2.559,2.559,0,0,1-.948.6l-2.491.076-.5,0,.208-28.3a5.129,5.129,0,0,1,5.177-5.093l127.455.938c5.877.044,10.413,2.858,10.37,8.735l0,.275,0,2.962.006,3.5Z" transform="translate(-8.06 -24.799)" fill="#e42000"/>
        <path id="Path_3496" data-name="Path 3496" d="M160.965,26.309s-8.263-22.462-9.4-22.47-29.623-.492-29.657.058c-.136,2.14.495,22.086.495,22.086Z" transform="translate(-67.583 -1.794)" fill="#c2effb"/>
        <path id="Path_3497" data-name="Path 3497" d="M116.9,50.846c.863,2.542,7.252,21.415,9.213,23.4.4.4,31.242.48,31.357.245.43-.845,2.34-22.108,2.443-23.333Z" transform="translate(-64.008 -25.104)" fill="#b61100"/>
        <path id="Path_3498" data-name="Path 3498" d="M121.676,50.694c.841,2.941,1.729,5.868,2.643,8.787s1.854,5.832,2.918,8.708c.267.719.54,1.436.832,2.149a20.128,20.128,0,0,0,.989,2.121l.179.266.091.132.046.066c.014.016,0,.01.037.046a.518.518,0,0,0,.168.1,3.8,3.8,0,0,0,.65.091c.39.031.773.05,1.158.067l2.3.078c3.061.086,6.121.109,9.18.112s6.118,0,9.178-.03c1.531-.016,3.059-.031,4.6-.078l.582-.023.3-.019c.057-.006.1-.009.181-.02l.065-.012a.443.443,0,0,0,.139-.051.55.55,0,0,0,.226-.225.669.669,0,0,0,.036-.114c.032-.12.071-.268.086-.37l.043-.294c.03-.2.057-.391.078-.581.095-.768.172-1.529.248-2.291.559-6.1.989-12.2,1.433-18.3l.035-.48-.479,0c-3.19-.011-6.387-.032-9.571-.009l-9.534.048Zm0,0,19.1.409,9.434.187c3.138.07,6.265.1,9.4.131l-.444-.481c-.479,6.094-.964,12.193-1.542,18.271-.07.759-.143,1.519-.231,2.27-.02.19-.044.375-.07.556l-.038.274-.036.19c0,.006-.013.051,0,.024a.443.443,0,0,1,.194-.21c.117-.053.114-.039.1-.04h0l-.1.011-.271.02-.564.026c-1.517.057-3.047.082-4.574.108q-4.582.073-9.167.09l-9.166.007-2.287-.032c-.38-.01-.76-.021-1.133-.043a4.557,4.557,0,0,1-.487-.048.222.222,0,0,1,.1.067c.018.023-.006-.01-.006-.01l-.035-.053-.071-.1-.146-.207a19.571,19.571,0,0,1-.986-2.015c-.3-.7-.587-1.4-.866-2.111-2.193-5.695-4.151-11.494-6.109-17.287" transform="translate(-66.604 -24.937)" fill="#e42000"/>
        <path id="Path_3499" data-name="Path 3499" d="M152.011,74.678l-34.335-.253-8.01,13.2L56.477,87.1,46.211,73.718l-32.968-.172L5.227,87.606l-1.274,2.23-.039.069C1.44,89.87.019,89.61,0,92a3.084,3.084,0,0,0,1.111,2.821,3.3,3.3,0,0,0,1.018.424,11.467,11.467,0,0,0,2.56.216,9.6,9.6,0,0,0,3.468-.4,2.57,2.57,0,0,0,.947-.6,2.649,2.649,0,0,0,.749-1.44l7.229-13.964,27.887-.2,8.8,12.613,58.039.53,6.175-10.586,33.973.251a3.16,3.16,0,0,0,3.127-3.19l0-.566a3.16,3.16,0,0,0-3.08-3.237" transform="translate(-0.001 -36.312)" fill="#5a5555"/>
        <g id="Group_12412" data-name="Group 12412" transform="translate(54.306 1.995)" opacity="0.4" style="mix-blend-mode: overlay;isolation: isolate">
          <g id="Group_12411" data-name="Group 12411">
            <g id="Group_12410" data-name="Group 12410" clip-path="url(#clip-path-18)">
              <path id="Path_3500" data-name="Path 3500" d="M128.605,3.941c-.3.03-.486.065-.488.107-.135,2.14.495,22.086.495,22.086l35.419.3a46.688,46.688,0,0,1-7.379-1.371c-10.893-3.72-21.754-11.229-28.047-21.121" transform="translate(-128.098 -3.941)"/>
            </g>
          </g>
        </g>
        <g id="Group_12415" data-name="Group 12415" transform="translate(72.807 10.757)" opacity="0.3" style="mix-blend-mode: overlay;isolation: isolate">
          <g id="Group_12414" data-name="Group 12414" transform="translate(0)">
            <g id="Group_12413" data-name="Group 12413" clip-path="url(#clip-path-19)">
              <path id="Path_3501" data-name="Path 3501" d="M142.87,21.248l-15.3,13.583,10.488.089,7.21-7.548c-.756-1.97-1.588-4.1-2.4-6.124" transform="translate(-127.573 -21.248)" fill="#fff"/>
            </g>
          </g>
        </g>
        <g id="Group_12418" data-name="Group 12418" transform="translate(54.707 1.984)" opacity="0.3" style="mix-blend-mode: overlay;isolation: isolate">
          <g id="Group_12417" data-name="Group 12417" transform="translate(0)">
            <g id="Group_12416" data-name="Group 12416" clip-path="url(#clip-path-20)">
              <path id="Path_3502" data-name="Path 3502" d="M167.289,3.979c-.256,0-1.907-.028-4.3-.061L138.013,22.4c.066,2.22.113,3.724.113,3.724l5.794.049,24.6-20.223c-.586-1.217-1.03-1.968-1.236-1.969" transform="translate(-138.013 -3.918)" fill="#fff"/>
            </g>
          </g>
        </g>
        <g id="Group_12421" data-name="Group 12421" transform="translate(60.206 0.291)" opacity="0.6" style="mix-blend-mode: overlay;isolation: isolate">
          <g id="Group_12420" data-name="Group 12420">
            <g id="Group_12419" data-name="Group 12419" clip-path="url(#clip-path-21)">
              <path id="Path_3503" data-name="Path 3503" d="M160.672,1.331c5.006.037,9.066-.1,9.068-.309s-4.056-.406-9.062-.443-9.066.1-9.068.309,4.056.406,9.062.443" transform="translate(-151.61 -0.574)" fill="#fff"/>
            </g>
          </g>
        </g>
        <g id="Group_12424" data-name="Group 12424" transform="translate(86.736 3.221)" opacity="0.6" style="mix-blend-mode: overlay;isolation: isolate">
          <g id="Group_12423" data-name="Group 12423" transform="translate(0)">
            <g id="Group_12422" data-name="Group 12422" transform="translate(0)" clip-path="url(#clip-path-22)">
              <path id="Path_3504" data-name="Path 3504" d="M125.2,14.982c1.761,4.686,3.346,8.427,3.541,8.353s-1.076-3.932-2.837-8.618-3.346-8.426-3.541-8.353,1.075,3.932,2.837,8.618" transform="translate(-122.342 -6.363)" fill="#fff"/>
            </g>
          </g>
        </g>
        <path id="Path_3505" data-name="Path 3505" d="M102.892,68.873c-.969,2.537-2.043,4.575-2.623,5.015-.1.081-.185.11-.252.085-.448-.171.111-2.732,1.252-5.72s2.434-5.268,2.882-5.1c.073.028.127.132.139.3a16.843,16.843,0,0,1-1.4,5.42" transform="translate(0.232 -31.178)" fill="#b61100"/>
        <path id="Path_3506" data-name="Path 3506" d="M102.495,69.172c-.969,2.537-2.043,4.575-2.623,5.015a17.165,17.165,0,0,1,1.406-5.418c.969-2.537,2.042-4.574,2.616-5.018a16.843,16.843,0,0,1-1.4,5.42" transform="translate(0.629 -31.477)" fill="#a00800"/>
        <path id="Path_3507" data-name="Path 3507" d="M95.363,68.929c-.97,2.537-2.043,4.574-2.623,5.015-.1.081-.185.11-.251.085-.448-.171.111-2.733,1.252-5.72s2.434-5.268,2.882-5.1c.073.028.127.132.139.3a16.844,16.844,0,0,1-1.4,5.42" transform="translate(11.573 -31.206)" fill="#b61100"/>
        <path id="Path_3508" data-name="Path 3508" d="M94.966,69.228c-.97,2.537-2.043,4.574-2.623,5.015a17.153,17.153,0,0,1,1.406-5.418c.969-2.537,2.042-4.575,2.616-5.018a16.843,16.843,0,0,1-1.4,5.42" transform="translate(11.97 -31.504)" fill="#a00800"/>
        <path id="Path_3509" data-name="Path 3509" d="M87.637,68.985c-.969,2.537-2.043,4.575-2.623,5.015-.1.081-.185.11-.252.085-.448-.171.111-2.732,1.253-5.72s2.434-5.268,2.882-5.1c.073.028.127.132.139.3a16.843,16.843,0,0,1-1.4,5.42" transform="translate(23.21 -31.233)" fill="#b61100"/>
        <path id="Path_3510" data-name="Path 3510" d="M87.24,69.284c-.969,2.537-2.043,4.575-2.623,5.015a17.165,17.165,0,0,1,1.406-5.418c.969-2.537,2.042-4.574,2.616-5.018a16.843,16.843,0,0,1-1.4,5.42" transform="translate(23.608 -31.532)" fill="#a00800"/>
        <g id="Group_12427" data-name="Group 12427" transform="translate(0 40.681)" opacity="0.2" style="mix-blend-mode: overlay;isolation: isolate">
          <g id="Group_12426" data-name="Group 12426">
            <g id="Group_12425" data-name="Group 12425" clip-path="url(#clip-path-23)">
              <path id="Path_3511" data-name="Path 3511" d="M155.091,81.276l0,.566a3.161,3.161,0,0,1-3.127,3.19l-33.974-.25-6.175,10.585-58.039-.53-8.8-12.613-27.887.2L9.853,96.386a2.65,2.65,0,0,1-.749,1.44,2.561,2.561,0,0,1-.947.6,9.6,9.6,0,0,1-3.468.4,11.442,11.442,0,0,1-2.56-.216,3.315,3.315,0,0,1-1.018-.423A3.085,3.085,0,0,1,0,95.362a3.8,3.8,0,0,1,.077-.785,2.486,2.486,0,0,0,1.016,1.736,3.317,3.317,0,0,0,1.019.424,11.5,11.5,0,0,0,2.56.215,9.6,9.6,0,0,0,3.468-.4,2.555,2.555,0,0,0,.947-.6,2.646,2.646,0,0,0,.749-1.44l7.229-13.964,27.9-.195,8.8,12.613,58.054.53,6.175-10.586,33.981.251a3.139,3.139,0,0,0,3.059-2.531,3.436,3.436,0,0,1,.058.644" transform="translate(0 -80.356)"/>
            </g>
          </g>
        </g>
        <g id="Group_12430" data-name="Group 12430" transform="translate(122.706 39.538)" opacity="0.2" style="mix-blend-mode: overlay;isolation: isolate">
          <g id="Group_12429" data-name="Group 12429" transform="translate(0)">
            <g id="Group_12428" data-name="Group 12428" clip-path="url(#clip-path-24)">
              <path id="Path_3512" data-name="Path 3512" d="M12.259,78.9c-.006.817,5.953,1.122,13.182,1.175s12.991-.165,13-.982-5.753-.92-12.982-.974-13.19-.036-13.2.781" transform="translate(-12.259 -78.097)" fill="#fff"/>
            </g>
          </g>
        </g>
        <g id="Group_12433" data-name="Group 12433" transform="translate(64.141 51.341)" opacity="0.2" style="mix-blend-mode: overlay;isolation: isolate">
          <g id="Group_12432" data-name="Group 12432" transform="translate(0)">
            <g id="Group_12431" data-name="Group 12431" clip-path="url(#clip-path-25)">
              <path id="Path_3513" data-name="Path 3513" d="M127.939,102.033c0,.65,5.954.9,13.184.954s12.99-.112,12.995-.761-5.755-.74-12.984-.794-13.19-.049-13.195.6" transform="translate(-127.939 -101.412)" fill="#fff"/>
            </g>
          </g>
        </g>
        <g id="Group_12436" data-name="Group 12436" transform="translate(16.287 37.888)" opacity="0.2" style="mix-blend-mode: overlay;isolation: isolate">
          <g id="Group_12435" data-name="Group 12435" transform="translate(0)">
            <g id="Group_12434" data-name="Group 12434" transform="translate(0)" clip-path="url(#clip-path-26)">
              <path id="Path_3514" data-name="Path 3514" d="M222.465,75.9c.009.838,5.972,1.044,13.2.969s12.987-.4,12.978-1.24-5.769-.84-13-.765-13.189.2-13.18,1.037" transform="translate(-222.465 -74.837)" fill="#fff"/>
            </g>
          </g>
        </g>
        <path id="Path_3515" data-name="Path 3515" d="M212.865,104.38A16.951,16.951,0,1,0,229.94,87.555a16.951,16.951,0,0,0-17.076,16.826" transform="translate(-199.442 -43.229)" fill="#3d3939"/>
        <path id="Path_3516" data-name="Path 3516" d="M221.228,108.725a12.6,12.6,0,1,0,12.7-12.509,12.6,12.6,0,0,0-12.7,12.509" transform="translate(-203.342 -47.505)" fill="#282626"/>
        <path id="Path_3517" data-name="Path 3517" d="M246.558,113.522a8.277,8.277,0,0,1-2.115,5.461c-.118.133-.245.266-.38.39a8.234,8.234,0,0,1-5.84,2.362,7.8,7.8,0,0,1-1.554-.161c-.181-.032-.353-.073-.525-.113v-.008a8.218,8.218,0,0,1-3.67-2.1,8.308,8.308,0,0,1-1.958-3.016c-.062-.174-.124-.347-.177-.52A8.409,8.409,0,0,1,230,113.4a8.077,8.077,0,0,1,.226-1.861,8.208,8.208,0,0,1,1.611-3.272,4.464,4.464,0,0,1,.356-.406,8.2,8.2,0,0,1,3.749-2.345,8.3,8.3,0,0,1,2.4-.337,8.052,8.052,0,0,1,1.3.112c.18.033.36.066.533.106a8.311,8.311,0,0,1,5.924,5.371v.008a4.881,4.881,0,0,1,.161.512,8.321,8.321,0,0,1,.29,2.234" transform="translate(-207.909 -51.931)" fill="#5a5555"/>
        <path id="Path_3518" data-name="Path 3518" d="M240.59,118.984a2.771,2.771,0,1,0,2.791-2.751,2.772,2.772,0,0,0-2.791,2.751" transform="translate(-212.843 -57.389)" fill="#706b6b"/>
        <path id="Path_3519" data-name="Path 3519" d="M246.537,133.023a8.152,8.152,0,0,1-2.06.244,7.776,7.776,0,0,1-1.555-.161c-.18-.032-.353-.073-.525-.114v-.008c.219-1.923.708-4.309,1.848-4.442a.848.848,0,0,1,.674.249c.749.681,1.293,2.571,1.619,4.231" transform="translate(-214.163 -63.464)" fill="#494646"/>
        <path id="Path_3520" data-name="Path 3520" d="M246.011,133.271a8.152,8.152,0,0,1-2.061.244,7.774,7.774,0,0,1-1.555-.161c.234-1.9.73-4.167,1.847-4.308a.984.984,0,0,1,.149-.007c.749.681,1.293,2.571,1.619,4.231" transform="translate(-213.637 -63.711)" fill="#3a3838"/>
        <path id="Path_3521" data-name="Path 3521" d="M235.959,125.25a8.167,8.167,0,0,1-1.784,3.208c-.119.133-.246.265-.38.39-1.595-1.151-3.539-2.839-3.067-3.927a.813.813,0,0,1,.553-.452c1.008-.322,3.039.2,4.677.781" transform="translate(-197.642 -61.406)" fill="#494646"/>
        <path id="Path_3522" data-name="Path 3522" d="M235.474,125.25a8.167,8.167,0,0,1-1.784,3.208c-1.571-1.158-3.413-2.791-2.965-3.856.024-.047.048-.094.072-.133,1.008-.322,3.039.2,4.677.781" transform="translate(-197.157 -61.406)" fill="#3a3838"/>
        <path id="Path_3523" data-name="Path 3523" d="M235.845,113.668c-1.813.828-4.39,1.76-5.121.78a.84.84,0,0,1-.121-.708c.228-1.059,1.78-2.6,3.116-3.741a8.246,8.246,0,0,1,1.965,3.149v.008a4.919,4.919,0,0,1,.161.512" transform="translate(-197.487 -54.31)" fill="#494646"/>
        <path id="Path_3524" data-name="Path 3524" d="M235.975,113.148v.008c-1.805.8-4.279,1.666-5,.709-.023-.039-.054-.087-.077-.126.228-1.059,1.779-2.6,3.116-3.741a8.247,8.247,0,0,1,1.965,3.149" transform="translate(-197.779 -54.31)" fill="#3a3838"/>
        <path id="Path_3525" data-name="Path 3525" d="M246.833,105.4c-.187,1.978-.663,4.7-1.89,4.85a.837.837,0,0,1-.674-.256c-.788-.713-1.347-2.768-1.672-4.475a8.322,8.322,0,0,1,2.4-.336,8.045,8.045,0,0,1,1.3.112c.181.032.361.066.534.106" transform="translate(-214.561 -51.931)" fill="#494646"/>
        <path id="Path_3526" data-name="Path 3526" d="M247.353,105.292c-.2,1.971-.694,4.552-1.881,4.7a.98.98,0,0,1-.149,0c-.788-.713-1.347-2.768-1.672-4.475a8.32,8.32,0,0,1,2.4-.336,7.988,7.988,0,0,1,1.3.112" transform="translate(-215.615 -51.931)" fill="#3a3838"/>
        <path id="Path_3527" data-name="Path 3527" d="M257.183,114.421a.825.825,0,0,1-.553.459c-.969.315-2.9-.171-4.5-.724a8.2,8.2,0,0,1,1.611-3.272,4.479,4.479,0,0,1,.357-.406c1.594,1.151,3.562,2.847,3.09,3.944" transform="translate(-229.806 -54.546)" fill="#494646"/>
        <path id="Path_3528" data-name="Path 3528" d="M257.655,115.142c-.024.047-.048.094-.072.133-.969.315-2.9-.171-4.5-.725a8.207,8.207,0,0,1,1.611-3.272c1.57,1.159,3.42,2.8,2.965,3.864" transform="translate(-230.759 -54.942)" fill="#3a3838"/>
        <path id="Path_3529" data-name="Path 3529" d="M257.187,125.251c-.212.973-1.533,2.354-2.783,3.453a8.317,8.317,0,0,1-1.958-3.016c-.061-.173-.123-.346-.177-.52,1.782-.773,4.106-1.549,4.8-.625a.814.814,0,0,1,.12.708" transform="translate(-229.84 -61.284)" fill="#494646"/>
        <path id="Path_3530" data-name="Path 3530" d="M257.066,125.817c-.212.973-1.533,2.354-2.783,3.453a8.317,8.317,0,0,1-1.958-3.016c1.758-.757,3.979-1.464,4.664-.563.023.039.054.087.077.126" transform="translate(-229.719 -61.849)" fill="#3a3838"/>
        <g id="Group_12439" data-name="Group 12439" transform="translate(27.75 59.522)" opacity="0.1" style="mix-blend-mode: overlay;isolation: isolate">
          <g id="Group_12438" data-name="Group 12438" transform="translate(0)">
            <g id="Group_12437" data-name="Group 12437" transform="translate(0)" clip-path="url(#clip-path-27)">
              <path id="Path_3531" data-name="Path 3531" d="M246.5,121.067a2.772,2.772,0,1,1-4.209-3.5,2.769,2.769,0,0,0,4.209,3.5" transform="translate(-241.339 -117.571)"/>
            </g>
          </g>
        </g>
        <g id="Group_12442" data-name="Group 12442" transform="translate(22.093 55.424)" opacity="0.2" style="mix-blend-mode: overlay;isolation: isolate">
          <g id="Group_12441" data-name="Group 12441">
            <g id="Group_12440" data-name="Group 12440" clip-path="url(#clip-path-8)">
              <path id="Path_3532" data-name="Path 3532" d="M247.863,120.1a8.2,8.2,0,0,1-.778,1.007c-.119.133-.246.266-.38.39a8.234,8.234,0,0,1-5.84,2.362,7.812,7.812,0,0,1-1.555-.161c-.18-.032-.353-.073-.525-.113v-.008a8.221,8.221,0,0,1-3.67-2.1,8.317,8.317,0,0,1-1.958-3.016c-.061-.174-.123-.347-.177-.52a8.444,8.444,0,0,1-.336-2.414,8.077,8.077,0,0,1,.226-1.861,8.206,8.206,0,0,1,1.611-3.272,4.614,4.614,0,0,1,.356-.406,6.378,6.378,0,0,1,.515-.506,8.222,8.222,0,0,0-1.345,4.453,8.392,8.392,0,0,0,.336,2.415c.053.174.115.347.176.52a8.308,8.308,0,0,0,1.959,3.016,8.22,8.22,0,0,0,3.669,2.1v.008c.173.04.345.081.525.114a7.844,7.844,0,0,0,1.554.16,8.144,8.144,0,0,0,2.061-.244,8.238,8.238,0,0,0,3.574-1.922" transform="translate(-232.645 -109.476)"/>
            </g>
          </g>
        </g>
        <g id="Group_12445" data-name="Group 12445" transform="translate(13.419 49.925)" opacity="0.2" style="mix-blend-mode: overlay;isolation: isolate">
          <g id="Group_12444" data-name="Group 12444" transform="translate(0)">
            <g id="Group_12443" data-name="Group 12443" clip-path="url(#clip-path-29)">
              <path id="Path_3533" data-name="Path 3533" d="M247.284,114.143a16.95,16.95,0,1,1-29.013-15.528,16.472,16.472,0,1,0,29.013,15.528" transform="translate(-213.906 -98.615)"/>
            </g>
          </g>
        </g>
        <g id="Group_12448" data-name="Group 12448" transform="translate(29.269 59.283)" opacity="0.2" style="mix-blend-mode: overlay;isolation: isolate">
          <g id="Group_12447" data-name="Group 12447" transform="translate(0)">
            <g id="Group_12446" data-name="Group 12446" transform="translate(0)" clip-path="url(#clip-path-10)">
              <path id="Path_3534" data-name="Path 3534" d="M241.46,117.517c-.283.536.839.477,1.8.984s1.4,1.387,1.682.851-.268-1.382-1.23-1.888-1.971-.483-2.253.053" transform="translate(-241.416 -117.098)" fill="#fff"/>
            </g>
          </g>
        </g>
        <g id="Group_12451" data-name="Group 12451" transform="translate(29.317 53.987)" opacity="0.2" style="mix-blend-mode: overlay;isolation: isolate">
          <g id="Group_12450" data-name="Group 12450" transform="translate(0)">
            <g id="Group_12449" data-name="Group 12449" clip-path="url(#clip-path-11)">
              <path id="Path_3535" data-name="Path 3535" d="M234.111,107.485c-.572,1.086,1.7.967,3.649,1.994s2.838,2.81,3.409,1.724-.544-2.8-2.493-3.825-3.993-.978-4.565.108" transform="translate(-234.021 -106.638)" fill="#fff"/>
            </g>
          </g>
        </g>
        <g id="Group_12454" data-name="Group 12454" transform="translate(30.164 45.647)" opacity="0.2" style="mix-blend-mode: overlay;isolation: isolate">
          <g id="Group_12453" data-name="Group 12453" transform="translate(0)">
            <g id="Group_12452" data-name="Group 12452" clip-path="url(#clip-path-12)">
              <path id="Path_3536" data-name="Path 3536" d="M221.2,90.781c-.572,1.086,3.2,1.214,6.738,3.079s5.51,4.759,6.082,3.674-1.591-3.775-5.132-5.64-7.117-2.2-7.689-1.113" transform="translate(-221.143 -90.164)" fill="#fff"/>
            </g>
          </g>
        </g>
        <g id="Group_12457" data-name="Group 12457" transform="translate(31.291 50.187)" opacity="0.2" style="mix-blend-mode: overlay;isolation: isolate">
          <g id="Group_12456" data-name="Group 12456" transform="translate(0)">
            <g id="Group_12455" data-name="Group 12455" clip-path="url(#clip-path-33)">
              <path id="Path_3537" data-name="Path 3537" d="M227.774,99.537c-.375.712,2.1.8,4.419,2.018s3.613,3.121,3.988,2.409-1.043-2.475-3.365-3.7-4.667-1.442-5.042-.73" transform="translate(-227.736 -99.133)" fill="#fff"/>
            </g>
          </g>
        </g>
        <path id="Path_3538" data-name="Path 3538" d="M2.566,100.807c-.015,2.091,1.679,3.757,4.753,3.78s4.793-1.652,4.809-3.743-1.679-3.807-4.753-3.83-4.794,1.7-4.81,3.793" transform="translate(141.663 -47.899)" fill="#5a5555"/>
        <g id="Group_12460" data-name="Group 12460" transform="translate(144.425 51.187)" opacity="0.2" style="mix-blend-mode: overlay;isolation: isolate">
          <g id="Group_12459" data-name="Group 12459" transform="translate(0)">
            <g id="Group_12458" data-name="Group 12458" clip-path="url(#clip-path-34)">
              <path id="Path_3539" data-name="Path 3539" d="M2.566,103.966c.507,1.523,2.072,2.623,4.557,2.642,3.075.023,4.794-1.652,4.809-3.743a3.466,3.466,0,0,0-.469-1.757,9.789,9.789,0,0,1-8.9,2.858" transform="translate(-2.566 -101.108)"/>
            </g>
          </g>
        </g>
        <g id="Group_12463" data-name="Group 12463" transform="translate(145.234 49.906)" opacity="0.2" style="mix-blend-mode: overlay;isolation: isolate">
          <g id="Group_12462" data-name="Group 12462">
            <g id="Group_12461" data-name="Group 12461" clip-path="url(#clip-path-35)">
              <path id="Path_3540" data-name="Path 3540" d="M7.309,100.573c.131.75,1.554-.042,3.25-.338s3.023.016,2.893-.734-1.612-1.119-3.308-.823-2.965,1.144-2.835,1.894" transform="translate(-7.299 -98.576)" fill="#fff"/>
            </g>
          </g>
        </g>
        <g id="Group_12466" data-name="Group 12466" transform="translate(8.933 1.951)" opacity="0.2" style="mix-blend-mode: overlay;isolation: isolate">
          <g id="Group_12465" data-name="Group 12465" transform="translate(0)">
            <g id="Group_12464" data-name="Group 12464" clip-path="url(#clip-path-36)">
              <path id="Path_3541" data-name="Path 3541" d="M246.372,4.773c-13.766.04-36.044.269-38.9.735-1.122,1.87-1.982,14.042-2.146,24.578l-2.357-.041c0-.016,0-.346.015-.927l1.61.02c.164-10.527,1.063-22.7,2.247-24.569,2.91-.45,24.944-.681,39.528-.715Z" transform="translate(-202.97 -3.854)"/>
            </g>
          </g>
        </g>
        <path id="Path_3542" data-name="Path 3542" d="M118.14,47.469a1.27,1.27,0,1,0,1.279-1.238,1.259,1.259,0,0,0-1.279,1.238" transform="translate(-25.398 -22.826)" fill="#5a5555"/>
        <g id="Group_12469" data-name="Group 12469" transform="translate(92.756 24.008)" opacity="0.2" style="mix-blend-mode: overlay;isolation: isolate">
          <g id="Group_12468" data-name="Group 12468" transform="translate(0)">
            <g id="Group_12467" data-name="Group 12467" transform="translate(0)" clip-path="url(#clip-path-37)">
              <path id="Path_3543" data-name="Path 3543" d="M120.666,48.075a1.268,1.268,0,0,1-2.523.154,1.272,1.272,0,0,0,2.354-.635,1.235,1.235,0,0,0-.015-.173,1.217,1.217,0,0,1,.184.654" transform="translate(-118.143 -47.421)"/>
            </g>
          </g>
        </g>
        <path id="Path_3544" data-name="Path 3544" d="M122.124,51.042a27.06,27.06,0,0,1-3.163-.279l.208-1.558a22.206,22.206,0,0,0,3.471.26,5.816,5.816,0,0,0,.771-1.436l1.463.576c-.281.715-.859,1.965-1.565,2.3a3.1,3.1,0,0,1-1.184.142" transform="translate(-30.009 -23.714)" fill="#5a5555"/>
        <g id="Group_12472" data-name="Group 12472" transform="translate(88.952 24.717)" opacity="0.2" style="mix-blend-mode: overlay;isolation: isolate">
          <g id="Group_12471" data-name="Group 12471" transform="translate(0)">
            <g id="Group_12470" data-name="Group 12470" transform="translate(0)" clip-path="url(#clip-path-38)">
              <path id="Path_3545" data-name="Path 3545" d="M124.877,49c-.28.713-.855,1.966-1.565,2.29a3.03,3.03,0,0,1-1.18.149,26.737,26.737,0,0,1-3.165-.282l.066-.479a25.067,25.067,0,0,0,2.8.233,3.032,3.032,0,0,0,1.18-.149,3.907,3.907,0,0,0,1.413-1.938Z" transform="translate(-118.968 -48.823)"/>
            </g>
          </g>
        </g>
        <path id="Path_3546" data-name="Path 3546" d="M127.593,44.17l1.208.148a.679.679,0,0,0,.756-.591l1.76-14.383a.679.679,0,0,0-.591-.756l-1.208-.148a.678.678,0,0,0-.756.591L127,43.414a.679.679,0,0,0,.591.756" transform="translate(-40.526 -14.039)" fill="#5a5555"/>
        <g id="Group_12475" data-name="Group 12475" transform="translate(87.821 14.538)" opacity="0.2" style="mix-blend-mode: overlay;isolation: isolate">
          <g id="Group_12474" data-name="Group 12474" transform="translate(0)">
            <g id="Group_12473" data-name="Group 12473" clip-path="url(#clip-path-39)">
              <path id="Path_3547" data-name="Path 3547" d="M129.246,28.716,127.082,44.4l.082.01a1.053,1.053,0,0,0,1.174-.918l1.669-13.64a1.05,1.05,0,0,0-.761-1.138" transform="translate(-127.082 -28.716)"/>
            </g>
          </g>
        </g>
        <g id="Group_12478" data-name="Group 12478" transform="translate(87.141 16.263)" opacity="0.2" style="mix-blend-mode: overlay;isolation: isolate">
          <g id="Group_12477" data-name="Group 12477" transform="translate(0)">
            <g id="Group_12476" data-name="Group 12476" transform="translate(0)" clip-path="url(#clip-path-40)">
              <path id="Path_3548" data-name="Path 3548" d="M130.827,38.458c-.457,3.534-.6,6.43-.314,6.466s.885-2.8,1.342-6.333.6-6.43.314-6.466-.885,2.8-1.342,6.333" transform="translate(-130.367 -32.124)" fill="#fff"/>
            </g>
          </g>
        </g>
        <path id="Path_3549" data-name="Path 3549" d="M179.284,59.45c0,.565-1.611.369-3.713.354s-3.9.155-3.9-.41,1.712-1.011,3.814-1,3.8.486,3.8,1.051" transform="translate(-111.106 -28.833)" fill="#9e0700"/>
      </g>
    </g>
  </g>
</svg>
