<svg id="_001-kia" data-name="001-kia" xmlns="http://www.w3.org/2000/svg" width="61.584" height="32.235" viewBox="0 0 61.584 32.235">
  <g id="Group_12914" data-name="Group 12914">
    <path id="Path_3933" data-name="Path 3933" d="M30.792,122C13.785,122,0,129.216,0,138.117s13.785,16.118,30.792,16.118,30.792-7.217,30.792-16.118S47.8,122,30.792,122Zm.129,28.547c-15.417,0-27.914-5.529-27.914-12.35s12.5-12.35,27.914-12.35,27.915,5.53,27.915,12.35S46.339,150.547,30.921,150.547Z" transform="translate(0 -122)" fill="#e82934"/>
    <path id="Path_3934" data-name="Path 3934" d="M305.315,193.447c0-.179-.3-.329-.3-.329l-.29,0A.124.124,0,0,1,304.6,193l0-1.531a.124.124,0,0,1,.124-.124l5.585,0c.167,0,.327.037.383.217,0,0,4.86,14.955,4.86,14.982a.276.276,0,0,1-.268.286l.007,0-3.5,0a.465.465,0,0,1-.4-.329l-3-9.613c-.021-.083-.069-.153-.154-.153s-.134.063-.153.153l-3,9.613a.468.468,0,0,1-.4.329l-3.489,0a.28.28,0,0,1-.272-.287C300.913,206.509,305.315,193.492,305.315,193.447Z" transform="translate(-264.719 -182.997)" fill="#e82934"/>
    <path id="Path_3935" data-name="Path 3935" d="M235.183,193.376h0a.318.318,0,0,0-.314-.32h-.463a.064.064,0,0,1-.062-.066V191.4a.064.064,0,0,1,.062-.064h4.63a.317.317,0,0,1,.306.326V206.5a.316.316,0,0,1-.306.325h-3.549a.316.316,0,0,1-.306-.325Z" transform="translate(-206.157 -182.998)" fill="#e82934"/>
    <path id="Path_3936" data-name="Path 3936" d="M114.063,206.81h-4.086a.757.757,0,0,1-.53-.327s-4.153-5.988-4.2-6.03a.212.212,0,0,0-.115-.035.175.175,0,0,0-.168.2v.072l0,5.8a.315.315,0,0,1-.306.325H101.22a.315.315,0,0,1-.306-.325l0-13.081v0a.313.313,0,0,0-.3-.324h.009l-.482,0a.064.064,0,0,1-.061-.065v-1.629a.064.064,0,0,1,.061-.066l4.521,0a.316.316,0,0,1,.306.326v4.925a.175.175,0,0,0,.168.2.223.223,0,0,0,.117-.036c.045-.041.683-.95.683-.95l2.817-4.134a.759.759,0,0,1,.531-.326H113.2a.274.274,0,0,1,.263.286.31.31,0,0,1-.041.16l-4.326,6.62a.322.322,0,0,0-.072.2.282.282,0,0,0,.066.19l5.178,7.549a.264.264,0,0,1,.065.19A.276.276,0,0,1,114.063,206.81Z" transform="translate(-88.041 -182.985)" fill="#e82934"/>
  </g>
  <path id="Path_3937" data-name="Path 3937" d="M244.56,122q-.787,0-1.564.021c14.232.373,25.917,5.8,28.631,12.928a6.157,6.157,0,0,1,.978,3.248,6.276,6.276,0,0,1-1.154,3.522c-3.013,6.911-14.512,12.131-28.455,12.5q.777.02,1.564.021c17.006,0,30.792-7.217,30.792-16.118S261.567,122,244.56,122Z" transform="translate(-213.768 -122)" fill="#c7232c"/>
</svg>
