<svg xmlns="http://www.w3.org/2000/svg" width="44.31" height="44.31" viewBox="0 0 44.31 44.31">
  <path id="Icon_material-my-location" data-name="Icon material-my-location" d="M23.655,15.6a8.056,8.056,0,1,0,8.056,8.056A8.054,8.054,0,0,0,23.655,15.6Zm18.006,6.042A18.115,18.115,0,0,0,25.669,5.649V1.5H21.641V5.649A18.115,18.115,0,0,0,5.649,21.641H1.5v4.028H5.649A18.115,18.115,0,0,0,21.641,41.661V45.81h4.028V41.661A18.115,18.115,0,0,0,41.661,25.669H45.81V21.641ZM23.655,37.753a14.1,14.1,0,1,1,14.1-14.1A14.088,14.088,0,0,1,23.655,37.753Z" transform="translate(-1.5 -1.5)" fill="#ffd31c"/>
</svg>
