<svg id="_076-mercedes-benz" data-name="076-mercedes-benz" xmlns="http://www.w3.org/2000/svg" width="61.584" height="61.584" viewBox="0 0 61.584 61.584">
  <path id="Path_4023" data-name="Path 4023" d="M30.792,0A30.792,30.792,0,1,0,61.584,30.787,30.794,30.794,0,0,0,30.792,0Zm0,57.249A26.459,26.459,0,1,1,57.246,30.791,26.486,26.486,0,0,1,30.792,57.249Z" fill="#ccc"/>
  <g id="Group_12931" data-name="Group 12931" transform="translate(7.519)">
    <path id="Path_4024" data-name="Path 4024" d="M240.139,0c-.729,0-1.452.027-2.169.077a30.791,30.791,0,0,1,0,61.429c.717.05,1.439.077,2.169.077a30.792,30.792,0,1,0,0-61.584Z" transform="translate(-216.866)" fill="#8c8c8c"/>
    <path id="Path_4025" data-name="Path 4025" d="M109.051,74.673l0,.007v0a.073.073,0,0,1-.04.031h0l-.27-.1L86.042,66.017a.722.722,0,0,0-.511,0l-22.69,8.591-.274.1a.077.077,0,0,1-.038-.029v0a.011.011,0,0,1,0-.009.084.084,0,0,1,0-.063l.2-.18L80.372,58.491a.722.722,0,0,0,.221-.379l5.06-22.819.011-.048L85.7,35.1a.128.128,0,0,1,.056-.058.061.061,0,0,1,.033-.009h0a.07.07,0,0,1,.031.007.131.131,0,0,1,.059.064s0,0,0,0l.031.138.011.051,5.059,22.818a.722.722,0,0,0,.221.379l17.653,15.937s0,0,0,0l.2.183h0A.083.083,0,0,1,109.051,74.673Z" transform="translate(-62.515 -30.817)" fill="#8c8c8c"/>
  </g>
  <path id="Path_4026" data-name="Path 4026" d="M85.786,35.03V60.313L62.874,74.456l-.35.216a.084.084,0,0,1,0-.063l.2-.18L80.372,58.491a.722.722,0,0,0,.221-.379l5.06-22.819.011-.048L85.7,35.1a.128.128,0,0,1,.056-.058.061.061,0,0,1,.033-.009Z" transform="translate(-54.996 -30.817)" fill="#e3e3e3"/>
  <path id="Path_4027" data-name="Path 4027" d="M279.263,74.675l-.35-.217L256,60.315V35.032a.07.07,0,0,1,.031.007.131.131,0,0,1,.059.064s0,0,0,0a0,0,0,0,1,0,0l.029.132.012.055,5.06,22.819a.722.722,0,0,0,.221.379l17.653,15.938.2.181s0,0,0,0h0A.082.082,0,0,1,279.263,74.675Z" transform="translate(-225.207 -30.818)" fill="#ccc"/>
</svg>
