<svg id="ninja" xmlns="http://www.w3.org/2000/svg" width="35.06" height="35.06" viewBox="0 0 35.06 35.06">
  <g id="Group_9618" data-name="Group 9618" transform="translate(6.163 16.503)">
    <g id="Group_9617" data-name="Group 9617">
      <path id="Path_2096" data-name="Path 2096" d="M95.592,243.161l-4.109-2.054a1.027,1.027,0,0,0-.919,1.837L94.674,245a1.027,1.027,0,0,0,.919-1.837Z" transform="translate(-89.997 -240.998)" fill="#707070"/>
    </g>
  </g>
  <g id="Group_9620" data-name="Group 9620" transform="translate(16.571 16.503)">
    <g id="Group_9619" data-name="Group 9619">
      <path id="Path_2097" data-name="Path 2097" d="M248.052,241.565a1.027,1.027,0,0,0-1.378-.459l-4.109,2.054a1.027,1.027,0,0,0,.919,1.837l4.109-2.054A1.027,1.027,0,0,0,248.052,241.565Z" transform="translate(-241.997 -240.997)" fill="#707070"/>
    </g>
  </g>
  <g id="Group_9622" data-name="Group 9622">
    <g id="Group_9621" data-name="Group 9621">
      <path id="Path_2098" data-name="Path 2098" d="M34.033,22.666h-1.2a5.941,5.941,0,0,1-3.945-1.485c.007-.189.012-.379.012-.569V14.449a14.449,14.449,0,1,0-28.9,0v6.163A14.488,14.488,0,0,0,14.449,35.06a14.292,14.292,0,0,0,8.31-2.647,8.051,8.051,0,0,0,5.962,2.647h1.2a1.027,1.027,0,0,0,1.027-1.027V29.924A1.027,1.027,0,0,0,29.924,28.9h-1.2a5.985,5.985,0,0,1-2.175-.409,14.361,14.361,0,0,0,.95-1.682A8.1,8.1,0,0,0,32.83,28.9h1.2A1.027,1.027,0,0,0,35.06,27.87V23.693A1.027,1.027,0,0,0,34.033,22.666ZM14.449,2.054A12.41,12.41,0,0,1,26.822,13.739c-3.089-2.534-8.373-3.4-12.374-3.4-4.045,0-9.307.884-12.374,3.4A12.41,12.41,0,0,1,14.449,2.054ZM28.9,30.951v2.054a6.008,6.008,0,0,1-4.548-1.9c.3-.28.576-.563.91-.939A8.074,8.074,0,0,0,28.9,30.951ZM14.449,33.006A12.41,12.41,0,0,1,2.075,21.321c3.089,2.534,8.373,3.4,12.374,3.4,4.045,0,9.307-.884,12.374-3.4A12.41,12.41,0,0,1,14.449,33.006Zm0-10.34c-7.3,0-12.394-2.707-12.394-5.136s5.09-5.136,12.394-5.136S26.843,15.1,26.843,17.53,21.753,22.666,14.449,22.666Zm18.557,4.177A6.067,6.067,0,0,1,28.6,25.021l-.3-.3q.177-.593.3-1.2a8.02,8.02,0,0,0,4.4,1.2Z" fill="#707070"/>
    </g>
  </g>
</svg>
