<svg xmlns="http://www.w3.org/2000/svg" width="28.109" height="28.458" viewBox="0 0 28.109 28.458">
  <path id="Path_4790" data-name="Path 4790" d="M3061.011,5575.847a3.588,3.588,0,1,0,0,4.763,9.488,9.488,0,0,1,1.928,2.369,2.542,2.542,0,1,0,2.555,0,10.554,10.554,0,0,1,1-1.44,2.845,2.845,0,0,1,2.137-.929h8.781a.714.714,0,0,1,.7.7v.07a.672.672,0,0,1-.046.209v.023c-.116.464-.256.906-.418,1.37a14.57,14.57,0,0,1-2.811,4.739,14.261,14.261,0,0,1-21.233,0,14.985,14.985,0,0,1-2.811-4.739,14.894,14.894,0,0,1-.6-7.132,14.225,14.225,0,0,1,24.625-7.108,13.877,13.877,0,0,1,3.229,6.109l.023.024a1.152,1.152,0,0,1,.046.278v.023a.718.718,0,0,1-.557.674h-8.921a2.692,2.692,0,0,1-2.091-.906,3.975,3.975,0,1,0-5.529.906Z" transform="translate(-3050 -5564)" fill="#707070"/>
</svg>
