<svg id="_079-toyota" data-name="079-toyota" xmlns="http://www.w3.org/2000/svg" width="61.584" height="41.136" viewBox="0 0 61.584 41.136">
  <path id="Path_4028" data-name="Path 4028" d="M30.792,85C13.785,85,0,94.209,0,105.568s13.785,20.568,30.792,20.568,30.792-9.209,30.792-20.568S47.8,85,30.792,85Zm15.455,8.054a1.655,1.655,0,0,1,0,2.676,19.675,19.675,0,0,1-6.45,2.78c-.058-.211-.119-.42-.183-.626-1.362-4.422-3.885-7.684-6.9-8.671C39.507,89.537,44.188,91.53,46.247,93.054ZM25.5,103.795a47.448,47.448,0,0,0,10.586,0q.056.8.057,1.641c0,7.212-3.22,12-5.349,12s-5.35-4.785-5.35-12Q25.441,104.593,25.5,103.795Zm9.8-4.452a38.657,38.657,0,0,1-4.5.256q-.792,0-1.549-.03h-.012c-1.03-.038-2.01-.116-2.943-.226,1.1-3.69,3.054-5.907,4.5-5.907S34.194,95.653,35.295,99.343Zm-19.955-6.3a22.566,22.566,0,0,1,9.2-3.366l.232-.038a36.775,36.775,0,0,1,4.1-.42c-3.154,1.032-5.769,4.557-7.08,9.3a19.54,19.54,0,0,1-6.456-2.794A1.655,1.655,0,0,1,15.34,93.039Zm17.317,29.15c-.1.006-.208.01-.312.014h0q-.77.032-1.549.031c-14.219,0-26.231-7.631-26.231-16.665,0-3.488,1.789-6.765,4.805-9.475,1.072,2.994,5.556,5.573,11.618,6.945q-.1,1.175-.1,2.4c0,9.13,4.437,16.532,9.912,16.532s9.91-7.4,9.91-16.532q0-1.221-.1-2.4c6.062-1.372,10.546-3.951,11.618-6.945,3.015,2.71,4.805,5.987,4.805,9.475C57.021,114.2,46.044,121.558,32.657,122.188Zm6.953-24.3c.056.211.116.42.183.626C39.734,98.3,39.674,98.09,39.609,97.885Z" transform="translate(0 -85)" fill="#ccc"/>
  <g id="Group_12932" data-name="Group 12932" transform="translate(12.316)">
    <path id="Path_4029" data-name="Path 4029" d="M105.41,129.607a19.543,19.543,0,0,0,6.456,2.794c-5.249-.211-8.057-1.738-8.946-2.585a1.9,1.9,0,0,1,.33-2.885c2.062-1.514,4.512-2.432,11.6-3.4l-.232.038a22.569,22.569,0,0,0-9.2,3.366A1.655,1.655,0,0,0,105.41,129.607Z" transform="translate(-102.391 -118.892)" fill="#8c8c8c"/>
    <path id="Path_4030" data-name="Path 4030" d="M244.671,85q-.779,0-1.549.026c16.286.539,29.243,9.53,29.243,20.542s-12.957,20-29.243,20.542q.77.025,1.549.026c17.006,0,30.792-9.209,30.792-20.568S261.677,85,244.671,85Z" transform="translate(-226.195 -85)" fill="#8c8c8c"/>
    <path id="Path_4031" data-name="Path 4031" d="M254.478,234.965q.1,1.175.1,2.4c0,9.13-4.437,16.532-9.91,16.532a6.079,6.079,0,0,1-1.549-.2c4.737-1.24,8.25-5.6,8.25-13.854,0-.009.111-2.493.111-2.5C251.483,235.972,253.131,235.2,254.478,234.965Z" transform="translate(-226.196 -216.927)" fill="#8c8c8c"/>
    <path id="Path_4032" data-name="Path 4032" d="M250.954,127.809a1.954,1.954,0,0,1-.3.086,3.018,3.018,0,0,1-3.39-1.827c-1.567-3.851-4.478-6.654-7.231-7.555a9.1,9.1,0,0,1,3.841,0c3.012.986,5.535,4.249,6.9,8.671C250.826,127.394,250.887,127.6,250.954,127.809Z" transform="translate(-223.476 -114.298)" fill="#8c8c8c"/>
  </g>
</svg>
