<svg id="Group_12366" data-name="Group 12366" xmlns="http://www.w3.org/2000/svg" xmlns:xlink="http://www.w3.org/1999/xlink" width="149.751" height="70.02" viewBox="0 0 149.751 70.02">
  <defs>
    <clipPath id="clip-path">
      <rect id="Rectangle_1409" data-name="Rectangle 1409" width="149.751" height="70.02" fill="none"/>
    </clipPath>
    <clipPath id="clip-path-3">
      <rect id="Rectangle_1407" data-name="Rectangle 1407" width="100.371" height="1.942" fill="none"/>
    </clipPath>
  </defs>
  <g id="Group_12365" data-name="Group 12365" clip-path="url(#clip-path)">
    <rect id="Rectangle_1363" data-name="Rectangle 1363" width="108.447" height="44.644" transform="translate(5.515)" fill="#a8e0fb"/>
    <g id="Group_12364" data-name="Group 12364">
      <g id="Group_12363" data-name="Group 12363" clip-path="url(#clip-path)">
        <path id="Path_3436" data-name="Path 3436" d="M931.736,203.589s1.67.659,1.8,2.021v14.676l-1.845,2.021-3.339-4.218Z" transform="translate(-783.787 -171.885)" fill="#c93d06"/>
        <rect id="Rectangle_1364" data-name="Rectangle 1364" width="145.181" height="12.128" transform="translate(2.417 44.534)" fill="#5c5963"/>
        <rect id="Rectangle_1365" data-name="Rectangle 1365" width="145.181" height="1.933" transform="translate(2.417 54.729)" fill="#413f47"/>
        <rect id="Rectangle_1366" data-name="Rectangle 1366" width="2.054" height="13.314" transform="translate(2.417 48.137)" fill="#5c5963"/>
        <path id="Path_3437" data-name="Path 3437" d="M773.079,100.878h-25.6v29.576l11.666.019c7.646.132,10.051,5.647,10.051,5.647h9.832V116.872Z" transform="translate(-631.079 -85.169)" fill="#f5570b"/>
        <path id="Path_3438" data-name="Path 3438" d="M820.281,121.109h17.18l-3.955-10.633H820.281Z" transform="translate(-692.544 -93.272)" fill="#a8e0fb"/>
        <path id="Path_3439" data-name="Path 3439" d="M747.479,74.932h28.242c-1.1-4.045-5.392-4.811-5.392-4.811H747.479Z" transform="translate(-631.079 -59.202)" fill="#c93d06"/>
        <path id="Path_3440" data-name="Path 3440" d="M759.078,317.462a11.161,11.161,0,1,0-11.161,11.161,11.161,11.161,0,0,0,11.161-11.161" transform="translate(-622.026 -258.603)" fill="#312e37"/>
        <path id="Path_3441" data-name="Path 3441" d="M768.882,331.132a7.294,7.294,0,1,0,7.294,7.294,7.294,7.294,0,0,0-7.294-7.294m0,13.138a5.844,5.844,0,1,1,5.844-5.844,5.844,5.844,0,0,1-5.844,5.844" transform="translate(-642.991 -279.567)" fill="#fff"/>
        <path id="Path_3442" data-name="Path 3442" d="M776.744,340.443a5.844,5.844,0,1,0,5.844,5.844,5.844,5.844,0,0,0-5.844-5.844" transform="translate(-650.853 -287.428)" fill="#5c5963"/>
        <path id="Path_3443" data-name="Path 3443" d="M797.646,364.752a2.439,2.439,0,1,0-2.439,2.439,2.439,2.439,0,0,0,2.439-2.439" transform="translate(-669.317 -305.892)" fill="#fff"/>
        <path id="Path_3444" data-name="Path 3444" d="M272.047,317.462a11.161,11.161,0,1,0-11.161,11.161,11.161,11.161,0,0,0,11.161-11.161" transform="translate(-210.837 -258.603)" fill="#312e37"/>
        <path id="Path_3445" data-name="Path 3445" d="M281.849,331.132a7.294,7.294,0,1,0,7.294,7.294,7.294,7.294,0,0,0-7.294-7.294m0,13.138a5.844,5.844,0,1,1,5.844-5.844,5.844,5.844,0,0,1-5.844,5.844" transform="translate(-231.8 -279.567)" fill="#fff"/>
        <path id="Path_3446" data-name="Path 3446" d="M289.711,340.443a5.844,5.844,0,1,0,5.844,5.844,5.844,5.844,0,0,0-5.844-5.844" transform="translate(-239.662 -287.428)" fill="#5c5963"/>
        <path id="Path_3447" data-name="Path 3447" d="M310.613,364.752a2.439,2.439,0,1,0-2.439,2.439,2.439,2.439,0,0,0,2.439-2.439" transform="translate(-258.126 -305.892)" fill="#fff"/>
        <path id="Path_3448" data-name="Path 3448" d="M84.118,317.462a11.161,11.161,0,1,0-11.161,11.161,11.161,11.161,0,0,0,11.161-11.161" transform="translate(-52.173 -258.603)" fill="#312e37"/>
        <path id="Path_3449" data-name="Path 3449" d="M93.922,331.132a7.294,7.294,0,1,0,7.294,7.294,7.294,7.294,0,0,0-7.294-7.294m0,13.138a5.844,5.844,0,1,1,5.844-5.844,5.844,5.844,0,0,1-5.844,5.844" transform="translate(-73.138 -279.567)" fill="#fff"/>
        <path id="Path_3450" data-name="Path 3450" d="M101.784,340.443a5.844,5.844,0,1,0,5.844,5.844,5.844,5.844,0,0,0-5.844-5.844" transform="translate(-81 -287.428)" fill="#5c5963"/>
        <path id="Path_3451" data-name="Path 3451" d="M122.685,364.752a2.439,2.439,0,1,0-2.439,2.439,2.439,2.439,0,0,0,2.439-2.439" transform="translate(-99.463 -305.892)" fill="#fff"/>
        <path id="Path_3452" data-name="Path 3452" d="M735.823,291.9a13.417,13.417,0,0,0-13.392,12.964h2.253a11.147,11.147,0,0,1,22.277,0h2.253A13.417,13.417,0,0,0,735.823,291.9" transform="translate(-609.932 -246.446)" fill="#413f47"/>
        <path id="Path_3453" data-name="Path 3453" d="M248.79,291.9A13.417,13.417,0,0,0,235.4,304.866h2.253a11.147,11.147,0,0,1,22.278,0h2.253A13.417,13.417,0,0,0,248.79,291.9" transform="translate(-198.741 -246.446)" fill="#413f47"/>
        <path id="Path_3454" data-name="Path 3454" d="M60.862,291.9A13.417,13.417,0,0,0,47.47,304.866h2.253a11.147,11.147,0,0,1,22.278,0h2.253A13.417,13.417,0,0,0,60.862,291.9" transform="translate(-40.078 -246.446)" fill="#413f47"/>
        <path id="Path_3455" data-name="Path 3455" d="M820.281,110.475v10.633l13.224-10.633Z" transform="translate(-692.544 -93.272)" fill="#89d7f9"/>
        <line id="Line_4" data-name="Line 4" x2="31.517" transform="translate(116.422 39.437)" fill="none" stroke="#c93d06" stroke-miterlimit="10" stroke-width="1"/>
        <line id="Line_5" data-name="Line 5" y2="30.089" transform="translate(125.54 15.149)" fill="none" stroke="#c93d06" stroke-miterlimit="10" stroke-width="1"/>
        <path id="Path_3456" data-name="Path 3456" d="M827.689,226.983a.943.943,0,0,0-.989-.89h-3.606a.895.895,0,1,0,0,1.78H826.7a.943.943,0,0,0,.989-.89" transform="translate(-694.085 -190.885)" fill="#fff"/>
        <path id="Path_3457" data-name="Path 3457" d="M767.306,111.493c0-.291-.327-.527-.732-.527h-3.337c-.4,0-.732.236-.732.527v9.326c0,.291.327.527.732.527h3.337c.4,0,.732-.236.732-.527Z" transform="translate(-643.765 -93.686)" fill="#c93d06"/>
        <rect id="Rectangle_1367" data-name="Rectangle 1367" width="2.439" height="6.789" transform="translate(0 52.62)" fill="#f5570b"/>
        <rect id="Rectangle_1368" data-name="Rectangle 1368" width="27.551" height="10.853" transform="translate(75.535 48.357)" fill="#c9c8cc"/>
        <rect id="Rectangle_1369" data-name="Rectangle 1369" width="27.551" height="3.823" transform="translate(75.535 55.388)" fill="#6a6972"/>
        <rect id="Rectangle_1370" data-name="Rectangle 1370" width="27.551" height="3.296" transform="translate(75.535 48.357)" fill="#85838c"/>
        <rect id="Rectangle_1371" data-name="Rectangle 1371" width="1.626" height="10.853" transform="translate(91.068 48.357)" fill="#413f47"/>
        <rect id="Rectangle_1372" data-name="Rectangle 1372" width="1.626" height="10.853" transform="translate(98.055 48.357)" fill="#413f47"/>
        <rect id="Rectangle_1373" data-name="Rectangle 1373" width="1.9" height="38.8" transform="translate(10.087 2.812)" fill="#6ab0c6"/>
        <rect id="Rectangle_1374" data-name="Rectangle 1374" width="1.9" height="38.8" transform="translate(16.241 2.812)" fill="#6ab0c6"/>
        <rect id="Rectangle_1375" data-name="Rectangle 1375" width="1.9" height="38.8" transform="translate(22.396 2.812)" fill="#6ab0c6"/>
        <rect id="Rectangle_1376" data-name="Rectangle 1376" width="1.9" height="38.8" transform="translate(28.55 2.812)" fill="#6ab0c6"/>
        <rect id="Rectangle_1377" data-name="Rectangle 1377" width="1.9" height="38.8" transform="translate(34.704 2.812)" fill="#6ab0c6"/>
        <rect id="Rectangle_1378" data-name="Rectangle 1378" width="1.9" height="38.8" transform="translate(40.859 2.812)" fill="#6ab0c6"/>
        <rect id="Rectangle_1379" data-name="Rectangle 1379" width="1.9" height="38.8" transform="translate(47.013 2.812)" fill="#6ab0c6"/>
        <rect id="Rectangle_1380" data-name="Rectangle 1380" width="1.9" height="38.8" transform="translate(53.168 2.812)" fill="#6ab0c6"/>
        <rect id="Rectangle_1381" data-name="Rectangle 1381" width="1.9" height="38.8" transform="translate(59.322 2.812)" fill="#6ab0c6"/>
        <rect id="Rectangle_1382" data-name="Rectangle 1382" width="1.9" height="38.8" transform="translate(65.477 2.812)" fill="#6ab0c6"/>
        <rect id="Rectangle_1383" data-name="Rectangle 1383" width="1.9" height="38.8" transform="translate(71.631 2.812)" fill="#6ab0c6"/>
        <rect id="Rectangle_1384" data-name="Rectangle 1384" width="1.9" height="38.8" transform="translate(77.785 2.812)" fill="#6ab0c6"/>
        <rect id="Rectangle_1385" data-name="Rectangle 1385" width="1.9" height="38.8" transform="translate(83.94 2.812)" fill="#6ab0c6"/>
        <rect id="Rectangle_1386" data-name="Rectangle 1386" width="1.9" height="38.8" transform="translate(90.094 2.812)" fill="#6ab0c6"/>
        <rect id="Rectangle_1387" data-name="Rectangle 1387" width="1.9" height="38.8" transform="translate(96.249 2.812)" fill="#6ab0c6"/>
        <rect id="Rectangle_1388" data-name="Rectangle 1388" width="1.9" height="38.8" transform="translate(102.403 2.812)" fill="#6ab0c6"/>
        <rect id="Rectangle_1389" data-name="Rectangle 1389" width="1.9" height="38.8" transform="translate(108.557 2.812)" fill="#6ab0c6"/>
        <rect id="Rectangle_1390" data-name="Rectangle 1390" width="1.9" height="38.8" transform="translate(9.482 2.812)" fill="#7ac1dd"/>
        <rect id="Rectangle_1391" data-name="Rectangle 1391" width="1.9" height="38.8" transform="translate(15.637 2.812)" fill="#7ac1dd"/>
        <rect id="Rectangle_1392" data-name="Rectangle 1392" width="1.9" height="38.8" transform="translate(21.791 2.812)" fill="#7ac1dd"/>
        <rect id="Rectangle_1393" data-name="Rectangle 1393" width="1.9" height="38.8" transform="translate(27.945 2.812)" fill="#7ac1dd"/>
        <rect id="Rectangle_1394" data-name="Rectangle 1394" width="1.9" height="38.8" transform="translate(34.1 2.812)" fill="#7ac1dd"/>
        <rect id="Rectangle_1395" data-name="Rectangle 1395" width="1.9" height="38.8" transform="translate(40.254 2.812)" fill="#7ac1dd"/>
        <rect id="Rectangle_1396" data-name="Rectangle 1396" width="1.9" height="38.8" transform="translate(46.409 2.812)" fill="#7ac1dd"/>
        <rect id="Rectangle_1397" data-name="Rectangle 1397" width="1.9" height="38.8" transform="translate(52.563 2.812)" fill="#7ac1dd"/>
        <rect id="Rectangle_1398" data-name="Rectangle 1398" width="1.9" height="38.8" transform="translate(58.717 2.812)" fill="#7ac1dd"/>
        <rect id="Rectangle_1399" data-name="Rectangle 1399" width="1.9" height="38.8" transform="translate(64.872 2.812)" fill="#7ac1dd"/>
        <rect id="Rectangle_1400" data-name="Rectangle 1400" width="1.9" height="38.8" transform="translate(71.026 2.812)" fill="#7ac1dd"/>
        <rect id="Rectangle_1401" data-name="Rectangle 1401" width="1.9" height="38.8" transform="translate(77.181 2.812)" fill="#7ac1dd"/>
        <rect id="Rectangle_1402" data-name="Rectangle 1402" width="1.9" height="38.8" transform="translate(83.335 2.812)" fill="#7ac1dd"/>
        <rect id="Rectangle_1403" data-name="Rectangle 1403" width="1.9" height="38.8" transform="translate(89.49 2.812)" fill="#7ac1dd"/>
        <rect id="Rectangle_1404" data-name="Rectangle 1404" width="1.9" height="38.8" transform="translate(95.644 2.812)" fill="#7ac1dd"/>
        <rect id="Rectangle_1405" data-name="Rectangle 1405" width="1.9" height="38.8" transform="translate(101.798 2.812)" fill="#7ac1dd"/>
        <rect id="Rectangle_1406" data-name="Rectangle 1406" width="1.9" height="38.8" transform="translate(107.953 2.812)" fill="#7ac1dd"/>
        <g id="Group_12362" data-name="Group 12362" transform="translate(9.482 2.812)" opacity="0.8">
          <g id="Group_12361" data-name="Group 12361">
            <g id="Group_12360" data-name="Group 12360" clip-path="url(#clip-path-3)">
              <path id="Path_3458" data-name="Path 3458" d="M160.55,18.059H60.892V20H161.262V18.059Z" transform="translate(-60.892 -18.059)" fill="#7ac1dd"/>
            </g>
          </g>
        </g>
        <path id="Path_3459" data-name="Path 3459" d="M43.68,3.225a.4.4,0,0,0-.384.419V4.691a.4.4,0,0,0,.384.419h.447a.4.4,0,0,0,.384-.419V3.644a.4.4,0,0,0-.384-.419Z" transform="translate(-36.554 -2.723)" fill="#7ac1dd"/>
        <path id="Path_3460" data-name="Path 3460" d="M43.68,268.647a.4.4,0,0,0-.384.419v1.047a.4.4,0,0,0,.384.419h.447a.4.4,0,0,0,.384-.419v-1.047a.4.4,0,0,0-.384-.419Z" transform="translate(-36.554 -226.812)" fill="#7ac1dd"/>
        <path id="Path_3461" data-name="Path 3461" d="M717.318,3.225a.4.4,0,0,0-.383.419V4.691a.4.4,0,0,0,.383.419h.447a.4.4,0,0,0,.383-.419V3.644a.4.4,0,0,0-.383-.419Z" transform="translate(-605.291 -2.723)" fill="#7ac1dd"/>
        <path id="Path_3462" data-name="Path 3462" d="M717.318,268.647a.4.4,0,0,0-.383.419v1.047a.4.4,0,0,0,.383.419h.447a.4.4,0,0,0,.383-.419v-1.047a.4.4,0,0,0-.383-.419Z" transform="translate(-605.291 -226.812)" fill="#7ac1dd"/>
      </g>
    </g>
  </g>
</svg>
