<svg id="_073-volvo" data-name="073-volvo" xmlns="http://www.w3.org/2000/svg" width="61.584" height="61.584" viewBox="0 0 61.584 61.584">
  <rect id="Rectangle_1681" data-name="Rectangle 1681" width="56.517" height="15.805" transform="translate(2.086 22.325)" fill="#2d3e6c"/>
  <path id="SVGCleanerId_0" d="M51.98,7.472l-3.645,3.645a30.467,30.467,0,1,0,6.429,6.3.36.36,0,0,1,.031-.473l3.327-3.328ZM30.463,56.33A20.535,20.535,0,1,1,50.993,35.8,20.532,20.532,0,0,1,30.463,56.33Z" transform="translate(0 -4.683)" fill="#ccc"/>
  <g id="Group_12928" data-name="Group 12928" transform="translate(0 0.64)">
    <path id="SVGCleanerId_0_1_" d="M51.98,7.472l-3.645,3.645a30.467,30.467,0,1,0,6.429,6.3.36.36,0,0,1,.031-.473l3.327-3.328ZM30.463,56.33A20.535,20.535,0,1,1,50.993,35.8,20.532,20.532,0,0,1,30.463,56.33Z" transform="translate(0 -5.323)" fill="#ccc"/>
  </g>
  <path id="Path_4004" data-name="Path 4004" d="M54.795,16.941l3.327-3.328L51.98,7.47l-3.357,3.357a.482.482,0,0,1-.619.051A30.309,30.309,0,0,0,30.463,5.321q-.813,0-1.616.042A30.466,30.466,0,1,0,54.763,17.414.361.361,0,0,1,54.795,16.941ZM30.463,56.328A20.535,20.535,0,1,1,50.993,35.794,20.532,20.532,0,0,1,30.463,56.328Z" transform="translate(0 -4.681)" fill="#ccc"/>
  <g id="Group_12929" data-name="Group 12929" transform="translate(6.67 0.64)">
    <path id="Path_4005" data-name="Path 4005" d="M58.72,108.469A20.534,20.534,0,0,1,77.618,88q-.808-.064-1.632-.064a20.535,20.535,0,0,0,0,41.071q.824,0,1.632-.064A20.534,20.534,0,0,1,58.72,108.469Z" transform="translate(-55.457 -77.997)" fill="#8c8c8c"/>
    <path id="Path_4006" data-name="Path 4006" d="M257.281,11.116a4.5,4.5,0,0,1-2.454-.734,34.789,34.789,0,0,0-15.178-5.015l.022,0q.8-.041,1.616-.042A30.31,30.31,0,0,1,258.8,10.859,8.149,8.149,0,0,1,257.281,11.116Z" transform="translate(-217.494 -5.323)" fill="#8c8c8c"/>
    <path id="Path_4007" data-name="Path 4007" d="M265.666,32.656l3.327-3.328-6.142-6.143-1.632,1.632,1.949,1.949a3.624,3.624,0,0,1,0,5.124l-.07.07a1.508,1.508,0,0,0-.161,1.939A30.477,30.477,0,0,1,239.7,81.936q.81.043,1.632.044a30.475,30.475,0,0,0,24.3-48.851A.36.36,0,0,1,265.666,32.656Z" transform="translate(-217.542 -21.037)" fill="#8c8c8c"/>
  </g>
  <g id="Group_12930" data-name="Group 12930" transform="translate(12.336 26.024)">
    <path id="Path_4008" data-name="Path 4008" d="M174.81,216.36h-.765a2.883,2.883,0,0,0-2.88,2.88v2.773a2.883,2.883,0,0,0,2.88,2.88h.765a2.883,2.883,0,0,0,2.88-2.88V219.24A2.883,2.883,0,0,0,174.81,216.36Zm1.076,5.653a1.077,1.077,0,0,1-1.076,1.076h-.765a1.077,1.077,0,0,1-1.076-1.076V219.24a1.077,1.077,0,0,1,1.076-1.076h.765a1.077,1.077,0,0,1,1.076,1.076v2.773Z" transform="translate(-162.913 -216.36)" fill="#ebebeb"/>
    <path id="Path_4009" data-name="Path 4009" d="M240.075,223.089h-3.818v-5.827a.9.9,0,0,0-1.8,0v6.729a.9.9,0,0,0,.9.9h4.721a.9.9,0,1,0,0-1.8Z" transform="translate(-218.588 -216.36)" fill="#ebebeb"/>
    <path id="Path_4010" data-name="Path 4010" d="M355.618,216.36h-.765a2.883,2.883,0,0,0-2.88,2.88v2.773a2.883,2.883,0,0,0,2.88,2.88h.765a2.883,2.883,0,0,0,2.88-2.88V219.24A2.883,2.883,0,0,0,355.618,216.36Zm1.076,5.653a1.077,1.077,0,0,1-1.076,1.076h-.765a1.077,1.077,0,0,1-1.075-1.076V219.24a1.077,1.077,0,0,1,1.075-1.076h.765a1.077,1.077,0,0,1,1.076,1.076Z" transform="translate(-321.973 -216.36)" fill="#ebebeb"/>
    <path id="Path_4011" data-name="Path 4011" d="M109.99,216.36h-1.918a.9.9,0,0,0-.433,1.694l-1.127,3.212-1.089-3.1a.9.9,0,0,0-.047-1.8h-1.918a.9.9,0,0,0,0,1.8h.053l2.149,6.125a.9.9,0,0,0,1.7,0l2.149-6.125h.478a.9.9,0,0,0,0-1.8Z" transform="translate(-102.557 -216.36)" fill="#ebebeb"/>
    <path id="Path_4012" data-name="Path 4012" d="M288.593,216.36h-1.918a.9.9,0,0,0-.247,1.769l-1.1,3.136-1.1-3.136a.9.9,0,0,0-.247-1.769h-1.918a.9.9,0,1,0,0,1.8h.266l2.148,6.125a.9.9,0,0,0,1.7,0l2.149-6.125h.266a.9.9,0,0,0,0-1.8Z" transform="translate(-259.678 -216.36)" fill="#ebebeb"/>
  </g>
  <path id="Path_4013" data-name="Path 4013" d="M399.32.821l12.607,12.607a.481.481,0,0,0,.821-.34V.481A.481.481,0,0,0,412.267,0H399.66A.481.481,0,0,0,399.32.821Z" transform="translate(-351.165)" fill="#ccc"/>
  <path id="Path_4014" data-name="Path 4014" d="M486.3,0V11.159l2.27,2.27a.481.481,0,0,0,.821-.34V.481A.481.481,0,0,0,488.911,0Z" transform="translate(-427.808)" fill="#8c8c8c"/>
</svg>
